<svg width="30" height="21" viewBox="0 0 30 21" fill="none" xmlns="http://www.w3.org/2000/svg">
<path d="M7 20.7667V10.1161L3.30943 7.09425L0 5.41736V18.8871C0 19.9271 0.941442 20.7667 2.10005 20.7667H7Z" fill="#4285F4"/>
<path d="M23 20.7667H27.9C29.062 20.7667 30 19.924 30 18.8871V5.41736L26.2516 7.33805L23 10.116V20.7667Z" fill="#34A853"/>
<path d="M7.44979 9.80873L7 5.71954L7.44979 1.80579L14.9733 7.34635L22.4969 1.80579L23 5.50824L22.4969 9.80873L14.9733 15.3493L7.44979 9.80873Z" fill="#EA4335"/>
<path d="M23 1.8665V9.9319L30 5.2788V2.7971C30 0.495391 27.0355 -0.816747 24.9601 0.563637L23 1.8665Z" fill="#FBBC04"/>
<path d="M0 5.27882L3.21943 7.41897L7 9.9319V1.86654L5.03988 0.563683C2.96088 -0.8168 0 0.495437 0 2.79702V5.27872V5.27882Z" fill="#C5221F"/>
</svg>
