<svg width="30" height="48" viewBox="0 0 30 48" fill="none" xmlns="http://www.w3.org/2000/svg">
<path d="M4.78431 45.0969C10.6264 29.4263 18.5647 15.0131 28.4931 2.24433C29.1366 1.41233 27.8719 0.30463 27.2284 1.13663C17.225 14.0273 9.20398 28.6288 3.34629 44.4319C2.98421 45.4499 4.41444 46.1812 4.78431 45.0969Z" fill="#53B72C"/>
<path d="M27.7375 0.415854C20.6567 0.29252 13.8196 3.25952 8.80423 8.78846C3.15316 15.0831 0.75695 24.1299 0.560991 33.031C0.489239 36.7416 0.132384 42.3641 1.9279 45.666C3.31836 48.2858 6.68676 46.4547 8.48196 45.6269C15.0299 42.5402 20.3325 36.1151 23.8095 29.2261C28.0672 20.8528 29.7614 11.0705 29.2038 1.35672C29.1579 0.197568 27.5593 0.383792 27.6646 1.55363C28.1735 10.6493 26.6243 19.7131 22.7852 27.6201C20.7712 31.8613 18.0835 35.6427 14.9157 38.8638C13.474 40.2969 11.929 41.5759 10.2887 42.6347C9.23727 43.3256 8.07487 43.9288 6.92805 44.3995C5.14064 45.161 3.93933 46.0957 2.82534 43.1873C2.04145 41.0829 2.14636 38.123 2.10627 35.8817C2.03792 33.3645 2.15552 30.813 2.45129 28.2937C3.02725 23.3875 4.39083 18.4877 6.82053 14.3214C11.3957 6.34372 19.4292 1.96721 27.9587 2.14814C28.9838 2.19723 28.7627 0.46494 27.7375 0.415854Z" fill="#53B72C"/>
<path d="M14.6609 4.35871C14.6329 8.21258 14.9634 13.1464 16.4824 16.7371C16.9079 17.7615 18.3751 17.1454 17.9495 16.121C16.5697 12.8939 16.2082 8.22525 16.2566 4.71357C16.2185 3.48812 14.6744 3.21025 14.6609 4.35871Z" fill="#53B72C"/>
<path d="M12.3357 25.198C11.2909 23.2498 10.6569 20.9016 9.93241 18.808C9.20013 16.7806 8.47563 14.6869 7.8699 12.6146C7.57093 11.5453 6.10382 12.1614 6.40279 13.2307C7.59866 17.5079 8.96983 22.3582 11.0672 26.1884C11.6115 27.2341 12.8878 26.1775 12.3357 25.198Z" fill="#53B72C"/>
<path d="M7.35868 36.0822C5.5992 32.9898 4.25054 29.4976 3.33315 25.9475C3.03418 24.8782 1.62646 25.5049 1.86604 26.5636C2.76785 30.2462 4.22751 33.8262 6.08242 37.1388C6.64229 38.0519 7.91077 37.0616 7.35868 36.0822Z" fill="#53B72C"/>
<path d="M9.06421 33.9519C12.6246 35.1342 18.0474 35.4331 21.114 33.0738C21.9123 32.4728 20.9912 31.0207 20.1335 31.6111C17.5371 33.5811 12.5972 33.3014 9.6229 32.2922C8.73986 32.0656 8.07017 33.6376 9.06421 33.9519Z" fill="#53B72C"/>
<path d="M13.761 25.4545C17.8023 25.6402 21.751 25.0645 25.5556 23.6505C26.5087 23.2804 25.9079 21.6829 24.9626 21.9866C21.4111 23.3108 17.7671 23.8737 13.9634 23.7308C12.9976 23.6924 12.7952 25.4161 13.761 25.4545Z" fill="#53B72C"/>
<path d="M22.6729 11.0134C24.4857 11.0688 26.2108 10.8377 27.9155 10.2644C28.8608 9.96058 28.2678 8.29676 27.3224 8.60054C25.9303 9.09471 24.4505 9.30231 22.9424 9.23403C21.8501 9.24055 21.6477 10.9643 22.6729 11.0134Z" fill="#53B72C"/>
</svg>
