<svg width="18" height="16" viewBox="0 0 18 16" fill="none" xmlns="http://www.w3.org/2000/svg">
<path d="M0.929718 9.6793C2.02059 12.8554 4.40133 15.288 7.8355 15.6345C11.1196 15.9607 14.3806 14.4234 16.1355 11.6107C17.064 10.1362 17.5905 8.37696 17.6183 6.63567C17.6422 5.16391 17.3406 3.40029 16.2753 2.28852C13.8765 -0.173366 9.5041 0.531697 6.58475 1.42806C4.68791 2.01388 2.90038 3.0661 1.60694 4.60505C0.36707 6.08648 0.367272 7.89944 0.929718 9.6793C1.01051 9.92866 1.39161 9.83794 1.33199 9.58354C0.860274 8.09545 0.723642 6.41568 1.71312 5.10577C2.73187 3.7777 4.18377 2.7718 5.72512 2.14749C8.51323 1.02497 12.3608 0.321735 15.105 1.87322C18.0323 3.53782 17.5097 8.1276 16.207 10.676C14.8039 13.4161 12.049 15.1575 8.98322 15.2381C7.40548 15.278 5.76757 14.918 4.45686 13.999C2.95323 12.9244 1.93494 11.2978 1.34009 9.57042C1.24309 9.3473 0.840819 9.44305 0.929718 9.6793Z" fill="#FFD586"/>
<path d="M0.913305 5.69906C0.849451 7.38178 1.50782 9.09404 2.72811 10.2473C4.03677 11.4914 5.86338 11.7504 7.59063 11.5855C11.5551 11.1902 15.7946 8.91639 17.2064 5.02143C17.3049 4.77415 16.9084 4.65591 16.8229 4.91127C15.5127 8.52462 11.6849 10.5997 8.03233 11.1334C6.32496 11.3832 4.41732 11.2553 3.09744 10.0586C1.89205 8.969 1.26166 7.32843 1.31924 5.71434C1.32314 5.44482 0.930266 5.43762 0.913305 5.69906Z" fill="#FFD586"/>
<path d="M1.32292 5.82538C4.1687 6.18878 7.02151 6.24834 9.86828 5.99598C10.1192 5.96982 10.1356 5.56302 9.8847 5.58918C7.03794 5.84154 4.16395 5.78702 1.33934 5.41858C1.08657 5.38922 1.07015 5.79602 1.32292 5.82538Z" fill="#FFD586"/>
<path d="M7.23092 11.2906C8.19448 9.58397 9.61885 7.74526 9.79558 5.7335C9.81254 5.47206 9.41967 5.46485 9.38964 5.71821C9.2223 7.62702 7.81414 9.43949 6.89109 11.0805C6.76644 11.3116 7.10627 11.5217 7.23092 11.2906Z" fill="#FFD586"/>
<path d="M13.1964 8.94172C12.0974 7.97226 11.0893 6.914 10.1803 5.75382C10.0198 5.54582 9.7258 5.81726 9.88632 6.02526C10.7953 7.18544 11.8033 8.24369 12.9023 9.21315C13.0871 9.3818 13.3812 9.11036 13.1964 8.94172Z" fill="#FFD586"/>
<path d="M9.74697 5.81222C12.0884 5.12057 14.535 4.63892 16.9792 4.86287C17.232 4.89224 17.2484 4.48543 16.9957 4.45607C14.5172 4.22907 12.0233 4.6996 9.65257 5.40941C9.40347 5.49109 9.49788 5.89389 9.74697 5.81222Z" fill="#FFD586"/>
<path d="M9.8915 5.6659C10.1311 4.7807 10.3626 3.90862 10.6022 3.02342C10.7919 2.30678 11.0501 1.59622 11.0212 0.853255C11.017 0.596854 10.6111 0.581569 10.6153 0.83797C10.6459 1.63645 10.3311 2.43885 10.1301 3.20293C9.92112 3.98013 9.70399 4.77045 9.49496 5.54765C9.43566 5.81917 9.81913 5.92934 9.8915 5.6659Z" fill="#FFD586"/>
<path d="M9.77646 5.4135C8.50573 4.28347 7.25929 3.11409 6.02096 1.93159C5.84424 1.74983 5.54211 2.03438 5.72693 2.20303C6.96526 3.38553 8.21169 4.55491 9.48243 5.68493C9.68032 5.86166 9.98246 5.5771 9.77646 5.4135Z" fill="#FFD586"/>
<path d="M5.16193 8.08992C6.78224 7.65946 8.25953 6.90492 9.55956 5.82325C9.75453 5.65374 9.48449 5.35989 9.28951 5.52941C8.05613 6.56164 6.63738 7.27986 5.0806 7.6952C4.80536 7.76072 4.90787 8.1504 5.16193 8.08992Z" fill="#FFD586"/>
<path d="M10.0102 6.02934C10.721 6.48687 11.519 6.74456 12.3683 6.74386C12.6242 6.7389 12.6325 6.34522 12.3847 6.33705C11.599 6.32264 10.8874 6.10031 10.229 5.6751C9.99866 5.55086 9.78802 5.89198 10.0102 6.02934Z" fill="#FFD586"/>
<path d="M10.9838 11.8522C11.1215 11.6291 10.7816 11.4191 10.6439 11.6421C10.5062 11.8651 10.846 12.0752 10.9838 11.8522Z" fill="#FFD586"/>
<path d="M11.3109 13.4866C11.4487 13.2635 11.1088 13.0535 10.9711 13.2765C10.8334 13.4995 11.1732 13.7096 11.3109 13.4866Z" fill="#FFD586"/>
<path d="M13.5228 13.0049C13.6605 12.7818 13.3207 12.5717 13.1829 12.7948C13.0452 13.0178 13.385 13.2279 13.5228 13.0049Z" fill="#FFD586"/>
<path d="M13.1146 11.5016C13.2523 11.2786 12.9125 11.0685 12.7747 11.2916C12.637 11.5146 12.9768 11.7247 13.1146 11.5016Z" fill="#FFD586"/>
<path d="M15.2352 9.29575C15.373 9.07271 15.0331 8.86262 14.8954 9.08566C14.7577 9.3087 15.0975 9.51879 15.2352 9.29575Z" fill="#FFD586"/>
<path d="M7.5312 13.1441C7.55734 13.1602 7.57041 13.1683 7.59655 13.1845C7.81875 13.3218 8.02939 12.9807 7.8072 12.8433C7.78106 12.8272 7.76798 12.8191 7.74184 12.8029C7.51965 12.6656 7.30901 13.0067 7.5312 13.1441Z" fill="#FFD586"/>
<path d="M14.0088 6.92412C14.485 7.00101 14.9582 7.11221 15.4151 7.24966C15.6647 7.31334 15.7758 6.92878 15.5261 6.8651C15.0611 6.74077 14.588 6.62957 14.1198 6.53956C13.8833 6.48396 13.7511 6.87356 14.0088 6.92412Z" fill="#FFD586"/>
<path d="M1.89961 8.81052C2.42632 8.86421 2.93315 8.8331 3.44624 8.73334C3.70031 8.67287 3.61087 8.29126 3.35184 8.33054C2.87298 8.43333 2.39543 8.44629 1.90296 8.39564C1.6421 8.3794 1.64684 8.78116 1.89961 8.81052Z" fill="#FFD586"/>
</svg>
