<svg width="18" height="16" viewBox="0 0 18 16" fill="none" xmlns="http://www.w3.org/2000/svg">
<path d="M0.92984 9.6793C2.02071 12.8554 4.40145 15.288 7.83562 15.6345C11.1198 15.9607 14.3807 14.4234 16.1356 11.6107C17.0641 10.1362 17.5907 8.37696 17.6184 6.63567C17.6423 5.16391 17.3407 3.40029 16.2755 2.28852C13.8767 -0.173366 9.50423 0.531697 6.58487 1.42806C4.68803 2.01388 2.9005 3.0661 1.60706 4.60505C0.367192 6.08648 0.367394 7.89944 0.92984 9.6793C1.01064 9.92866 1.39173 9.83794 1.33211 9.58354C0.860396 8.09545 0.723764 6.41568 1.71324 5.10577C2.73199 3.7777 4.18389 2.7718 5.72524 2.14749C8.51335 1.02497 12.3609 0.321735 15.1052 1.87322C18.0324 3.53782 17.5099 8.1276 16.2071 10.676C14.804 13.4161 12.0492 15.1575 8.98334 15.2381C7.4056 15.278 5.76769 14.918 4.45698 13.999C2.95335 12.9244 1.93506 11.2978 1.34021 9.57042C1.24321 9.3473 0.840941 9.44305 0.92984 9.6793Z" fill="#FFD586"/>
<path d="M0.913427 5.69906C0.849573 7.38178 1.50794 9.09404 2.72824 10.2473C4.03689 11.4914 5.86351 11.7504 7.59075 11.5855C11.5552 11.1902 15.7947 8.91639 17.2065 5.02143C17.3051 4.77415 16.9085 4.65591 16.8231 4.91127C15.5129 8.52462 11.685 10.5997 8.03245 11.1334C6.32508 11.3832 4.41745 11.2553 3.09756 10.0586C1.89217 8.969 1.26178 7.32843 1.31937 5.71434C1.32326 5.44482 0.930389 5.43762 0.913427 5.69906Z" fill="#FFD586"/>
<path d="M1.32304 5.82538C4.16883 6.18878 7.02164 6.24834 9.8684 5.99598C10.1193 5.96982 10.1358 5.56302 9.88482 5.58918C7.03806 5.84154 4.16408 5.78702 1.33946 5.41858C1.08669 5.38922 1.07027 5.79602 1.32304 5.82538Z" fill="#FFD586"/>
<path d="M7.23105 11.2906C8.1946 9.58397 9.61897 7.74526 9.7957 5.7335C9.81267 5.47206 9.41979 5.46485 9.38976 5.71821C9.22243 7.62702 7.81426 9.43949 6.89122 11.0805C6.76656 11.3116 7.10639 11.5217 7.23105 11.2906Z" fill="#FFD586"/>
<path d="M13.1965 8.94172C12.0975 7.97226 11.0895 6.914 10.1805 5.75382C10.02 5.54582 9.72592 5.81726 9.88644 6.02526C10.7954 7.18544 11.8035 8.24369 12.9024 9.21315C13.0873 9.3818 13.3813 9.11036 13.1965 8.94172Z" fill="#FFD586"/>
<path d="M9.74709 5.81222C12.0885 5.12057 14.5351 4.63892 16.9794 4.86287C17.2321 4.89224 17.2486 4.48543 16.9958 4.45607C14.5173 4.22907 12.0234 4.6996 9.65269 5.40941C9.40359 5.49109 9.498 5.89389 9.74709 5.81222Z" fill="#FFD586"/>
<path d="M9.89163 5.6659C10.1312 4.7807 10.3627 3.90862 10.6023 3.02342C10.792 2.30678 11.0502 1.59622 11.0213 0.853255C11.0171 0.596854 10.6112 0.581569 10.6154 0.83797C10.6461 1.63645 10.3312 2.43885 10.1303 3.20293C9.92124 3.98013 9.70411 4.77045 9.49509 5.54765C9.43578 5.81917 9.81925 5.92934 9.89163 5.6659Z" fill="#FFD586"/>
<path d="M9.77659 5.4135C8.50585 4.28347 7.25941 3.11409 6.02108 1.93159C5.84436 1.74983 5.54223 2.03438 5.72705 2.20303C6.96538 3.38553 8.21181 4.55491 9.48255 5.68493C9.68044 5.86166 9.98258 5.5771 9.77659 5.4135Z" fill="#FFD586"/>
<path d="M5.16205 8.08992C6.78236 7.65946 8.25965 6.90492 9.55968 5.82325C9.75466 5.65374 9.48461 5.35989 9.28963 5.52941C8.05625 6.56164 6.63751 7.27986 5.08072 7.6952C4.80548 7.76072 4.90799 8.1504 5.16205 8.08992Z" fill="#FFD586"/>
<path d="M10.0103 6.02934C10.7211 6.48687 11.5192 6.74456 12.3684 6.74386C12.6243 6.7389 12.6326 6.34522 12.3848 6.33705C11.5991 6.32264 10.8876 6.10031 10.2291 5.6751C9.99878 5.55086 9.78814 5.89198 10.0103 6.02934Z" fill="#FFD586"/>
<path d="M10.9839 11.8522C11.1216 11.6291 10.7818 11.4191 10.644 11.6421C10.5063 11.8651 10.8461 12.0752 10.9839 11.8522Z" fill="#FFD586"/>
<path d="M11.3111 13.4866C11.4488 13.2635 11.109 13.0535 10.9712 13.2765C10.8335 13.4995 11.1733 13.7096 11.3111 13.4866Z" fill="#FFD586"/>
<path d="M13.5229 13.0049C13.6606 12.7818 13.3208 12.5717 13.183 12.7948C13.0453 13.0178 13.3852 13.2279 13.5229 13.0049Z" fill="#FFD586"/>
<path d="M13.1147 11.5016C13.2524 11.2786 12.9126 11.0685 12.7749 11.2916C12.6371 11.5146 12.977 11.7247 13.1147 11.5016Z" fill="#FFD586"/>
<path d="M15.2354 9.29575C15.3731 9.07271 15.0332 8.86262 14.8955 9.08566C14.7578 9.3087 15.0976 9.51879 15.2354 9.29575Z" fill="#FFD586"/>
<path d="M7.53132 13.1441C7.55747 13.1602 7.57054 13.1683 7.59668 13.1845C7.81887 13.3218 8.02951 12.9807 7.80732 12.8433C7.78118 12.8272 7.76811 12.8191 7.74197 12.8029C7.51977 12.6656 7.30913 13.0067 7.53132 13.1441Z" fill="#FFD586"/>
<path d="M14.0089 6.92412C14.4852 7.00101 14.9583 7.11221 15.4152 7.24966C15.6649 7.31334 15.7759 6.92878 15.5263 6.8651C15.0612 6.74077 14.5881 6.62957 14.12 6.53956C13.8834 6.48396 13.7512 6.87356 14.0089 6.92412Z" fill="#FFD586"/>
<path d="M1.89973 8.81052C2.42644 8.86421 2.93327 8.8331 3.44637 8.73334C3.70043 8.67287 3.61099 8.29126 3.35196 8.33054C2.87311 8.43333 2.39555 8.44629 1.90309 8.39564C1.64222 8.3794 1.64697 8.78116 1.89973 8.81052Z" fill="#FFD586"/>
</svg>
