<svg width="48" height="48" viewBox="0 0 48 48" fill="none" xmlns="http://www.w3.org/2000/svg">
<path d="M38.5749 24C37.5207 24 36.5096 23.5812 35.7642 22.8357C35.0187 22.0903 34.5999 21.0792 34.5999 20.025C34.5999 18.9708 35.0187 17.9597 35.7642 17.2142C36.5096 16.4688 37.5207 16.05 38.5749 16.05C39.6291 16.05 40.6402 16.4688 41.3857 17.2142C42.1311 17.9597 42.5499 18.9708 42.5499 20.025C42.5499 21.0792 42.1311 22.0903 41.3857 22.8357C40.6402 23.5812 39.6291 24 38.5749 24ZM30.6249 13.4C29.5707 13.4 28.5596 12.9812 27.8142 12.2357C27.0687 11.4903 26.6499 10.4792 26.6499 9.42499C26.6499 8.37076 27.0687 7.3597 27.8142 6.61424C28.5596 5.86879 29.5707 5.44999 30.6249 5.44999C31.6791 5.44999 32.6902 5.86879 33.4357 6.61424C34.1811 7.3597 34.5999 8.37076 34.5999 9.42499C34.5999 10.4792 34.1811 11.4903 33.4357 12.2357C32.6902 12.9812 31.6791 13.4 30.6249 13.4ZM17.3749 13.4C16.3207 13.4 15.3096 12.9812 14.5642 12.2357C13.8187 11.4903 13.3999 10.4792 13.3999 9.42499C13.3999 8.37076 13.8187 7.3597 14.5642 6.61424C15.3096 5.86879 16.3207 5.44999 17.3749 5.44999C18.4291 5.44999 19.4402 5.86879 20.1857 6.61424C20.9311 7.3597 21.3499 8.37076 21.3499 9.42499C21.3499 10.4792 20.9311 11.4903 20.1857 12.2357C19.4402 12.9812 18.4291 13.4 17.3749 13.4ZM9.4249 24C8.37067 24 7.35961 23.5812 6.61415 22.8357C5.8687 22.0903 5.4499 21.0792 5.4499 20.025C5.4499 18.9708 5.8687 17.9597 6.61415 17.2142C7.35961 16.4688 8.37067 16.05 9.4249 16.05C10.4791 16.05 11.4902 16.4688 12.2357 17.2142C12.9811 17.9597 13.3999 18.9708 13.3999 20.025C13.3999 21.0792 12.9811 22.0903 12.2357 22.8357C11.4902 23.5812 10.4791 24 9.4249 24ZM23.9999 0.149994C17.6745 0.149994 11.6081 2.66275 7.13541 7.1355C2.66266 11.6082 0.149902 17.6746 0.149902 24C0.149902 30.3254 2.66266 36.3917 7.13541 40.8645C11.6081 45.3372 17.6745 47.85 23.9999 47.85C25.0541 47.85 26.0652 47.4312 26.8107 46.6857C27.5561 45.9403 27.9749 44.9292 27.9749 43.875C27.9749 42.8415 27.5774 41.914 26.9414 41.225C26.3319 40.5095 25.9344 39.582 25.9344 38.575C25.9344 37.5208 26.3532 36.5097 27.0987 35.7642C27.8441 35.0188 28.8552 34.6 29.9094 34.6H34.5999C38.114 34.6 41.4842 33.204 43.9691 30.7192C46.4539 28.2343 47.8499 24.8641 47.8499 21.35C47.8499 9.63699 37.1704 0.149994 23.9999 0.149994Z" fill="#EF6292"/>
</svg>
