<svg width="119" height="153" viewBox="0 0 119 153" fill="none" xmlns="http://www.w3.org/2000/svg">
<path d="M41.2329 48.6925C39.9743 42.4628 38.1297 36.4212 35.652 30.587C35.3136 30.8382 35.0225 31.0698 34.6841 31.3209C40.4618 35.5082 46.1531 39.6206 50.7422 45.0762C51.2721 45.6864 52.2872 44.9329 51.7376 44.2755C47.0622 38.7451 41.2845 34.5578 35.44 30.3429C34.9608 29.9884 34.2369 30.5104 34.4721 31.0769C36.9106 36.8166 38.7632 42.7443 39.9631 48.8323C40.1351 49.6464 41.3382 49.479 41.2329 48.6925Z" fill="#FFA40C"/>
<path d="M36.2858 60.7642C27.4916 50.9111 14.5806 45.5347 1.37957 46.2561C1.53637 46.6338 1.69318 47.0114 1.84999 47.3891C7.30433 42.1357 17.8777 42.9481 24.8027 44.1684C32.1561 45.4876 39.0671 48.5401 45.0568 52.9714C45.7088 53.4756 46.4922 52.4308 45.7931 51.9462C39.4578 47.2157 32.0516 44.0367 24.2147 42.7522C17.1009 41.6103 6.67272 41.0143 1.0964 46.3737C0.655671 46.7781 0.92209 47.553 1.56682 47.5067C14.2843 46.82 26.8418 52.0111 35.2903 61.5649C35.8203 62.1751 36.8157 61.3743 36.2858 60.7642Z" fill="#FFA40C"/>
<path d="M48.0626 40.4882C48.124 31.4413 50.6496 22.8656 56.939 16.1586C56.5382 15.9929 56.2043 15.8548 55.8035 15.6892C54.5534 26.0044 56.2083 36.3865 60.7536 45.7346C61.1144 46.4703 62.2943 45.9804 61.9335 45.2447C57.5137 36.0659 55.8625 25.959 57.077 15.8245C57.1721 15.1209 56.3626 14.9036 55.9415 15.3551C49.5497 22.2153 46.8861 31.1251 46.8363 40.3332C46.8275 41.1117 48.0734 41.3139 48.0626 40.4882Z" fill="#FFA40C"/>
<path d="M28.9463 43.887C23.3083 34.4392 14.6222 26.3123 5.08807 20.8068C4.92251 21.2076 4.78454 21.5416 4.61898 21.9425C10.6524 22.4814 16.5711 23.6768 22.0163 26.397C27.3475 29.1093 31.8597 33.0471 36.2303 37.0437C36.8351 37.5675 37.591 36.5895 36.9666 36.0185C32.5568 31.9275 27.911 27.9344 22.513 25.1946C16.9814 22.3995 10.9487 21.1961 4.80129 20.6492C4.23134 20.6091 3.73904 21.4223 4.3322 21.7848C13.78 27.2155 22.36 35.2204 27.9784 44.6209C28.3588 45.4039 29.3543 44.6031 28.9463 43.887Z" fill="#FFA40C"/>
<path d="M31.3552 30.766C30.1752 21.1276 32.0235 10.1212 37.2965 1.89909C36.9349 1.82783 36.593 1.80377 36.1842 1.75211C39.1881 11.5187 42.062 21.5054 47.5672 30.2335C48.0224 30.93 49.0178 30.1293 48.5626 29.4327C43.0967 20.7991 40.3091 10.8872 37.3445 1.21502C37.2152 0.770559 36.5117 0.675248 36.2322 1.06805C30.8212 9.62415 28.8821 20.945 30.0854 30.9058C30.2102 31.7395 31.4605 31.5525 31.3552 30.766Z" fill="#FFA40C"/>
<path d="M23.6253 25.3415C20.8536 18.7993 16.2841 13.3909 11.809 7.94326C11.5571 8.26925 11.3051 8.59525 11.0532 8.92125C18.111 10.8613 24.3925 14.3965 29.6503 19.4638C30.2275 20.0543 31.011 19.0095 30.3866 18.4386C25.062 13.3437 18.6744 9.68642 11.5694 7.766C11.0075 7.61191 10.37 8.20868 10.8136 8.744C15.2023 14.1168 19.7129 19.3836 22.4454 25.8314C22.759 26.5867 23.9389 26.0969 23.6253 25.3415Z" fill="#FFA40C"/>
<path d="M46.9187 47.3279C47.869 48.151 48.6974 49.08 49.451 50.0954C49.9534 50.7723 50.9488 49.9716 50.4465 49.2947C49.6537 48.1848 48.6917 47.2006 47.7021 46.2831C47.0502 45.779 46.3139 46.8042 46.9187 47.3279Z" fill="#FFA40C"/>
<path d="M67.9385 46.5149C50.6166 44.907 33.2176 59.1048 28.3246 75.3049C25.3611 85.2247 27.6215 95.4661 30.8222 105.04C32.8751 111.051 35.4864 116.94 38.4832 122.559C41.1585 127.536 43.9869 132.616 47.622 136.973C50.8135 140.795 54.9569 144.111 58.9239 147.003C62.8712 149.847 67.0554 151.928 71.9409 152.501C82.4155 153.742 92.9063 151.157 101.82 145.574C109.294 140.921 115.179 134.438 117.59 125.854C120.136 116.661 118.584 106.126 115.705 97.1929C113.629 90.86 110.086 84.8592 106.849 79.0634C103.77 73.6452 100.407 68.3445 96.4343 63.5739C89.0973 54.8315 79.4115 47.8946 67.9385 46.5149C67.121 46.4115 66.9859 47.6852 67.7366 47.761C89.2282 50.3495 101.485 70.941 110.408 88.4336C118.464 104.238 122.17 126.222 107.739 139.575C100.267 146.496 89.9898 150.929 79.8317 151.383C75.0041 151.617 69.8862 151.417 65.427 149.339C60.8341 147.206 56.9463 143.839 53.1449 140.547C45.1492 133.683 40.0428 123.516 35.7806 114.051C31.4793 104.491 27.345 93.201 28.2299 82.5393C29.741 63.9244 48.6184 45.958 67.7838 47.7414C68.5542 47.8643 68.7365 46.571 67.9385 46.5149Z" fill="#FFA40C"/>
<path d="M67.1377 145.197C66.5809 143.989 66.0989 142.695 65.8253 141.37C65.704 140.811 65.5632 140.206 65.556 139.655C65.5299 138.393 65.7782 137.792 67.0445 137.377C69.5102 136.519 72.598 138.226 74.7586 139.432C75.4854 139.85 75.9349 138.667 75.2553 138.229C72.9415 136.921 67.9246 134.299 65.4102 136.506C62.943 138.692 64.8639 143.319 65.9383 145.64C66.3187 146.423 67.4986 145.933 67.1377 145.197Z" fill="#FFA40C"/>
<path d="M85.7579 132.208C85.1315 130.033 83.6056 123.693 87.9328 124.387C90.177 124.728 92.3805 126.304 94.1164 127.686C94.7684 128.19 95.5046 127.165 94.8527 126.661C92.6768 125.018 88.2582 121.706 85.3866 123.452C82.515 125.197 83.8144 130.193 84.5309 132.718C84.8445 133.473 86.0243 132.983 85.7579 132.208Z" fill="#FFA40C"/>
<path d="M102.377 119.331C101.751 117.155 100.225 110.815 104.552 111.509C106.796 111.85 109 113.426 110.736 114.808C111.388 115.313 112.124 114.287 111.472 113.783C109.296 112.141 104.877 108.828 102.006 110.574C99.1342 112.32 100.434 117.315 101.15 119.84C101.416 120.615 102.596 120.125 102.377 119.331Z" fill="#FFA40C"/>
<path d="M68.964 126.009C68.4072 124.801 67.9252 123.507 67.6515 122.181C67.5303 121.623 67.3895 121.017 67.3822 120.467C67.3562 119.205 67.6045 118.603 68.8707 118.188C71.3364 117.331 74.4242 119.037 76.5849 120.243C77.3117 120.661 77.7611 119.478 77.0816 119.041C74.7677 117.732 69.7509 115.111 67.2365 117.317C64.7692 119.504 66.6901 124.13 67.7646 126.451C68.145 127.234 69.3248 126.744 68.964 126.009Z" fill="#FFA40C"/>
<path d="M49.9497 136.45C49.3929 135.242 48.9109 133.948 48.6372 132.622C48.516 132.064 48.3752 131.458 48.368 130.908C48.3419 129.645 48.5902 129.044 49.8565 128.629C52.3222 127.771 55.41 129.478 57.5706 130.684C58.2974 131.102 58.7469 129.919 58.0673 129.482C55.7535 128.173 50.7366 125.552 48.2222 127.758C45.755 129.945 47.6759 134.571 48.7503 136.892C49.0835 137.695 50.2634 137.205 49.9497 136.45Z" fill="#FFA40C"/>
<path d="M87.5842 113.02C86.9577 110.845 85.4319 104.505 89.7591 105.198C92.0033 105.54 94.2068 107.115 95.9427 108.498C96.5946 109.002 97.3309 107.977 96.6789 107.472C94.5031 105.83 90.0845 102.517 87.2129 104.263C84.3413 106.009 85.6406 111.004 86.3571 113.529C86.6707 114.285 87.8506 113.795 87.5842 113.02Z" fill="#FFA40C"/>
<path d="M104.203 100.142C103.577 97.9668 102.051 91.6268 106.378 92.3207C108.622 92.6618 110.826 94.2375 112.562 95.6199C113.214 96.1241 113.95 95.0988 113.298 94.5947C111.122 92.9522 106.704 89.6396 103.832 91.3854C100.96 93.1312 102.26 98.1263 102.976 100.651C103.29 101.407 104.423 100.936 104.203 100.142Z" fill="#FFA40C"/>
<path d="M103.192 83.8473C102.558 81.7862 101.45 77.6525 103.574 76.1062C104.251 75.6038 103.45 74.608 102.774 75.1104C100.114 77.1002 101.237 81.6704 102.012 84.3372C102.279 85.1121 103.458 84.6223 103.192 83.8473Z" fill="#FFA40C"/>
<path d="M102.09 136.496C101.464 134.321 99.9378 127.981 104.265 128.675C106.509 129.016 108.713 130.592 110.449 131.974C111.101 132.478 111.837 131.453 111.185 130.949C109.009 129.306 104.59 125.994 101.719 127.74C98.8472 129.485 100.147 134.481 100.863 137.006C101.13 137.781 102.309 137.291 102.09 136.496Z" fill="#FFA40C"/>
<path d="M51.4419 120.721C50.885 119.513 50.403 118.219 50.1293 116.893C50.0081 116.335 49.8673 115.729 49.8601 115.179C49.834 113.916 50.0823 113.315 51.3486 112.9C53.8143 112.042 56.9021 113.749 59.0627 114.955C59.7895 115.373 60.239 114.19 59.5594 113.753C57.2456 112.444 52.2287 109.823 49.7143 112.029C47.2471 114.216 49.168 118.842 50.2424 121.163C50.6228 121.946 51.8027 121.456 51.4419 120.721Z" fill="#FFA40C"/>
<path d="M70.1092 107.712C69.4827 105.537 67.9569 99.1967 72.2841 99.8906C74.5283 100.232 76.7318 101.807 78.4677 103.19C79.1197 103.694 79.8559 102.669 79.204 102.165C77.0281 100.522 72.6095 97.2095 69.7379 98.9553C66.8663 100.701 68.1657 105.696 68.8822 108.221C69.1486 108.996 70.3284 108.506 70.1092 107.712Z" fill="#FFA40C"/>
<path d="M86.6812 94.8537C86.0547 92.6786 84.5289 86.3385 88.8561 87.0324C91.1003 87.3736 93.3038 88.9493 95.0397 90.3317C95.6916 90.8358 96.4279 89.8106 95.7759 89.3065C93.6001 87.664 89.1815 84.3514 86.3099 86.0972C83.4383 87.8429 84.7376 92.838 85.4541 95.3632C85.7677 96.1185 86.9476 95.6287 86.6812 94.8537Z" fill="#FFA40C"/>
<path d="M53.7016 100.577C53.1448 99.3694 52.6628 98.0752 52.3891 96.7498C52.2679 96.1913 52.1271 95.5856 52.1198 95.0352C52.0938 93.773 52.3421 93.1718 53.6083 92.7568C56.074 91.899 59.1618 93.6056 61.3225 94.8117C62.0492 95.2294 62.4987 94.0466 61.8192 93.6092C59.5053 92.3008 54.4885 89.6794 51.9741 91.8856C49.5068 94.0723 51.4277 98.6987 52.5021 101.02C52.8826 101.803 54.0624 101.313 53.7016 100.577Z" fill="#FFA40C"/>
<path d="M72.3218 87.5881C71.6953 85.413 70.1695 79.0729 74.4967 79.7668C76.7409 80.108 78.9444 81.6837 80.6803 83.0661C81.3322 83.5702 82.0685 82.545 81.4165 82.0409C79.2406 80.3984 74.8221 77.0858 71.9505 78.8316C69.0789 80.5773 70.3782 85.5724 71.0947 88.0976C71.3887 88.8057 72.5686 88.3158 72.3218 87.5881Z" fill="#FFA40C"/>
<path d="M39.0048 75.5749C38.448 74.3671 37.9659 73.0729 37.6923 71.7475C37.5711 71.1891 37.4302 70.5834 37.423 70.0329C37.3969 68.7708 37.6453 68.1696 38.9115 67.7545C41.3772 66.8968 44.465 68.6034 46.6257 69.8094C47.3524 70.2272 47.8019 69.0443 47.1223 68.607C44.8085 67.2985 39.7916 64.6771 37.2772 66.8834C34.81 69.0701 36.7309 73.6964 37.8053 76.0176C38.1385 76.8201 39.3184 76.3302 39.0048 75.5749Z" fill="#FFA40C"/>
<path d="M57.6249 62.5858C56.9985 60.4107 55.4726 54.0707 59.7998 54.7645C62.044 55.1057 64.2475 56.6814 65.9834 58.0638C66.6354 58.5679 67.3717 57.5427 66.7197 57.0386C64.5438 55.3961 60.1253 52.0835 57.2536 53.8293C54.382 55.5751 55.6814 60.5701 56.3979 63.0953C56.6447 63.823 57.8246 63.3331 57.6249 62.5858Z" fill="#FFA40C"/>
<path d="M88.9409 74.7104C88.3145 72.5353 86.7886 66.1952 91.1158 66.8891C93.36 67.2302 95.5635 68.8059 97.2994 70.1883C97.9514 70.6924 98.6877 69.6673 98.0357 69.1631C95.8598 67.5206 91.4413 64.208 88.5696 65.9538C85.698 67.6996 86.9974 72.6947 87.7139 75.2198C87.9803 75.9948 89.1406 75.4577 88.9409 74.7104Z" fill="#FFA40C"/>
<path d="M36.652 111.752C36.0255 109.577 34.4997 103.237 38.8269 103.931C41.0711 104.272 43.2746 105.847 45.0105 107.23C45.6624 107.734 46.3987 106.709 45.7467 106.205C43.5709 104.562 39.1523 101.25 36.2807 102.995C33.4091 104.741 34.7085 109.736 35.4249 112.261C35.6914 113.036 36.8712 112.546 36.652 111.752Z" fill="#FFA40C"/>
<path d="M36.663 95.2542C36.1062 94.0464 35.6241 92.7522 35.3505 91.4268C35.2293 90.8683 35.0884 90.2627 35.0812 89.7122C35.0551 88.4501 35.3035 87.8488 36.5697 87.4338C39.0354 86.576 42.1232 88.2827 44.2839 89.4887C45.0106 89.9065 45.4601 88.7236 44.7806 88.2862C42.4667 86.9778 37.4499 84.3564 34.9354 86.5626C32.4682 88.7493 34.3891 93.3757 35.4635 95.6969C35.8439 96.4798 37.0238 95.9899 36.663 95.2542Z" fill="#FFA40C"/>
<path d="M55.2831 82.2651C54.6567 80.09 53.1308 73.7499 57.4581 74.4438C59.7023 74.785 61.9057 76.3607 63.6416 77.743C64.2936 78.2472 65.0299 77.222 64.3779 76.7178C62.202 75.0754 57.7835 71.7628 54.9119 73.5086C52.0403 75.2543 53.3396 80.2494 54.0561 82.7746C54.3225 83.5495 55.5024 83.0596 55.2831 82.2651Z" fill="#FFA40C"/>
<path d="M71.9023 69.3874C71.2759 67.2123 69.75 60.8722 74.0772 61.5661C76.3214 61.9072 78.5249 63.4829 80.2608 64.8653C80.9128 65.3695 81.649 64.3443 80.9971 63.8401C78.8212 62.1976 74.4026 58.8851 71.531 60.6308C68.6594 62.3766 69.9588 67.3717 70.6753 69.8969C70.9417 70.6718 72.1215 70.1819 71.9023 69.3874Z" fill="#FFA40C"/>
<path d="M84.2222 148.232C83.5958 146.057 82.0699 139.717 86.3971 140.411C88.6413 140.752 90.8448 142.328 92.5807 143.71C93.2327 144.214 93.969 143.189 93.317 142.685C91.1411 141.042 86.7225 137.73 83.8509 139.476C80.9793 141.221 82.2787 146.216 82.9952 148.742C83.2892 149.45 84.4691 148.96 84.2222 148.232Z" fill="#FFA40C"/>
</svg>
