<svg width="31" height="28" viewBox="0 0 31 28" fill="none" xmlns="http://www.w3.org/2000/svg">
<path d="M18.2531 20.5539C18.2531 20.5539 21.5124 18.6382 22.1642 18.3435C22.8161 18.0487 23.5494 17.9014 23.9568 18.1961C24.6087 18.5645 30.0679 21.8065 30.5568 22.1013C31.0457 22.396 31.2087 23.2065 30.6383 24.017C29.9865 24.8275 27.1346 28.0696 25.9124 27.9959C24.6902 27.9959 19.0679 28.2906 9.37166 19.5961C-0.324632 10.8278 0.00129327 5.74372 0.00129327 4.63848C0.00129327 3.53324 3.50499 0.880665 4.40129 0.364887C5.29759 -0.224574 6.19388 -0.00352665 6.51981 0.438569C6.84573 0.880665 10.4309 5.8174 10.8383 6.40686C11.0828 6.77528 11.0013 7.43842 10.6754 8.02788C10.3494 8.61734 8.23092 11.5646 8.23092 11.5646C8.23092 11.5646 8.80129 13.6278 12.305 16.8698C15.8902 20.0382 18.2531 20.5539 18.2531 20.5539Z" fill="#2196F3"/>
<path d="M25.2975 2.21033H17.1375V5.15743H25.2975C26.1952 5.15743 26.9296 5.82053 26.9296 6.63098V13.9987H30.1936V6.63098C30.1936 4.19962 27.9904 2.21033 25.2975 2.21033Z" fill="#3F51B5"/>
<path d="M19.5854 7.36775L14.1182 3.68388L19.5854 0V7.36775Z" fill="#3F51B5"/>
</svg>
