<svg width="47" height="44" viewBox="0 0 47 44" fill="none" xmlns="http://www.w3.org/2000/svg">
<path d="M35.9844 0H11.0156C4.93186 0 0 4.54773 0 10.1576V33.1816C0 38.7915 4.93186 43.3392 11.0156 43.3392H35.9844C42.0681 43.3392 47 38.7915 47 33.1816V10.1576C47 4.54773 42.0681 0 35.9844 0Z" fill="url(#paint0_radial_404_1472)"/>
<path d="M35.9844 0H11.0156C4.93186 0 0 4.54773 0 10.1576V33.1816C0 38.7915 4.93186 43.3392 11.0156 43.3392H35.9844C42.0681 43.3392 47 38.7915 47 33.1816V10.1576C47 4.54773 42.0681 0 35.9844 0Z" fill="url(#paint1_radial_404_1472)"/>
<path d="M23.5017 4.74023C18.5156 4.74023 17.8897 4.76038 15.9315 4.84249C13.977 4.9251 12.6428 5.21036 11.4755 5.62903C10.2678 6.0614 9.24358 6.63988 8.22316 7.58115C7.20183 8.52226 6.57449 9.46675 6.10413 10.5799C5.64881 11.6566 5.33909 12.8873 5.25115 14.6888C5.16357 16.4946 5.14062 17.0719 5.14062 21.6698C5.14062 26.2676 5.16266 26.8429 5.25152 28.6486C5.34148 30.4509 5.65083 31.6811 6.10449 32.7575C6.57376 33.8711 7.2011 34.8156 8.22188 35.7566C9.24211 36.6983 10.2664 37.2782 11.4731 37.7105C12.6413 38.1292 13.9757 38.4145 15.9299 38.4971C17.8883 38.5792 18.5136 38.5993 23.4994 38.5993C28.486 38.5993 29.1099 38.5792 31.0681 38.4971C33.0226 38.4145 34.3583 38.1292 35.5265 37.7105C36.7336 37.2782 37.7564 36.6983 38.7765 35.7566C39.7978 34.8156 40.425 33.8711 40.8955 32.758C41.3468 31.6811 41.6567 30.4505 41.7485 28.6489C41.8364 26.8432 41.8594 26.2676 41.8594 21.6698C41.8594 17.0719 41.8364 16.495 41.7485 14.6891C41.6567 12.8868 41.3468 11.6567 40.8955 10.5804C40.425 9.46675 39.7978 8.52226 38.7765 7.58115C37.7553 6.63954 36.734 6.06106 35.5254 5.6292C34.355 5.21036 33.0201 4.92493 31.0655 4.84249C29.1071 4.76038 28.4837 4.74023 23.496 4.74023H23.5017ZM21.8546 7.79108C22.3435 7.7904 22.889 7.79108 23.5017 7.79108C28.4038 7.79108 28.9847 7.80733 30.9205 7.88842C32.7105 7.96393 33.6821 8.23971 34.3293 8.47147C35.1861 8.77823 35.7969 9.14509 36.4391 9.73779C37.0817 10.3303 37.4794 10.8946 37.813 11.6847C38.0643 12.2806 38.3638 13.1765 38.4453 14.8271C38.5332 16.6118 38.5523 17.1478 38.5523 21.6659C38.5523 26.184 38.5332 26.7202 38.4453 28.5047C38.3634 30.1553 38.0643 31.0512 37.813 31.6473C37.4803 32.4374 37.0817 32.9999 36.4391 33.5921C35.7966 34.1847 35.1865 34.5514 34.3293 34.8583C33.6828 35.0911 32.7105 35.3662 30.9205 35.4417C28.985 35.5228 28.4038 35.5404 23.5017 35.5404C18.5993 35.5404 18.0183 35.5228 16.083 35.4417C14.293 35.3655 13.3214 35.0897 12.6737 34.8579C11.817 34.551 11.2049 34.1843 10.5623 33.5918C9.91975 32.9993 9.52209 32.4364 9.1885 31.6459C8.93716 31.0498 8.63772 30.1539 8.5562 28.5033C8.46826 26.7186 8.45064 26.1826 8.45064 21.6617C8.45064 17.1408 8.46826 16.6076 8.5562 14.8229C8.63809 13.1723 8.93716 12.2763 9.1885 11.6796C9.52136 10.8895 9.91975 10.3252 10.5625 9.73271C11.2051 9.14018 11.817 8.77332 12.6738 8.46588C13.321 8.2331 14.293 7.958 16.083 7.88216C17.7766 7.81156 18.433 7.7904 21.8546 7.78685V7.79108ZM33.3019 10.602C32.0856 10.602 31.0988 11.5111 31.0988 12.6329C31.0988 13.7545 32.0856 14.6644 33.3019 14.6644C34.5182 14.6644 35.505 13.7545 35.505 12.6329C35.505 11.5113 34.5182 10.6014 33.3019 10.6014V10.602ZM23.5017 12.9757C18.2949 12.9757 14.0734 16.8684 14.0734 21.6698C14.0734 26.4711 18.2949 30.362 23.5017 30.362C28.7086 30.362 32.9286 26.4711 32.9286 21.6698C32.9286 16.8686 28.7082 12.9757 23.5013 12.9757H23.5017ZM23.5017 16.0265C26.8814 16.0265 29.6216 18.5529 29.6216 21.6698C29.6216 24.7863 26.8814 27.313 23.5017 27.313C20.1217 27.313 17.3819 24.7863 17.3819 21.6698C17.3819 18.5529 20.1217 16.0265 23.5017 16.0265Z" fill="white"/>
<defs>
<radialGradient id="paint0_radial_404_1472" cx="0" cy="0" r="1" gradientUnits="userSpaceOnUse" gradientTransform="translate(12.4844 46.6772) rotate(-90) scale(42.9524 43.3235)">
<stop stop-color="#FFDD55"/>
<stop offset="0.1" stop-color="#FFDD55"/>
<stop offset="0.5" stop-color="#FF543E"/>
<stop offset="1" stop-color="#C837AB"/>
</radialGradient>
<radialGradient id="paint1_radial_404_1472" cx="0" cy="0" r="1" gradientUnits="userSpaceOnUse" gradientTransform="translate(-7.87268 3.12195) rotate(77.7527) scale(19.265 85.5383)">
<stop stop-color="#3771C8"/>
<stop offset="0.128" stop-color="#3771C8"/>
<stop offset="1" stop-color="#6600FF" stop-opacity="0"/>
</radialGradient>
</defs>
</svg>
