<svg width="26" height="24" viewBox="0 0 26 24" fill="none" xmlns="http://www.w3.org/2000/svg">
<path d="M25.48 11.9985C25.48 11.0334 25.3933 10.3292 25.2056 9.59885H13V13.9548H20.1644C20.02 15.0373 19.24 16.6675 17.5066 17.763L17.4823 17.9088L21.3415 20.6082L21.6089 20.6323C24.0644 18.5847 25.48 15.572 25.48 11.9985Z" fill="#4285F4"/>
<path d="M13.0001 23.4754C16.51 23.4754 19.4567 22.432 21.609 20.6323L17.5067 17.763C16.409 18.4542 14.9356 18.9368 13.0001 18.9368C9.56233 18.9368 6.64457 16.8893 5.60447 14.0592L5.45202 14.0709L1.4392 16.8749L1.38672 17.0066C3.52447 20.8409 7.91559 23.4754 13.0001 23.4754Z" fill="#34A853"/>
<path d="M5.60439 14.0592C5.32995 13.3288 5.17112 12.5462 5.17112 11.7377C5.17112 10.929 5.32995 10.1466 5.58995 9.41622L5.58268 9.26068L1.51957 6.41162L1.38663 6.46871C0.505561 8.05984 0 9.84662 0 11.7377C0 13.6288 0.505561 15.4154 1.38663 17.0066L5.60439 14.0592Z" fill="#FBBC05"/>
<path d="M13.0001 4.53855C15.4412 4.53855 17.0878 5.4906 18.0267 6.28621L21.6956 3.0518C19.4423 1.16073 16.51 0 13.0001 0C7.91559 0 3.52447 2.63444 1.38672 6.46873L5.59003 9.41623C6.64457 6.58615 9.56233 4.53855 13.0001 4.53855Z" fill="#EB4335"/>
</svg>
