<svg width="111" height="117" viewBox="0 0 111 117" fill="none" xmlns="http://www.w3.org/2000/svg">
<path d="M16.8764 103.025C35.389 116.768 58.3153 121.29 79.1014 109.912C98.9596 99.0015 111.448 77.6326 110.457 54.8934C109.985 42.9398 106.132 30.9356 99.5255 20.9705C93.9438 12.5463 85.386 3.73414 75.037 1.57853C51.8948 -3.03998 29.8818 17.9357 16.8375 34.3499C8.37535 45.0342 2.34367 57.9342 0.999568 71.6702C-0.264662 84.8725 6.7788 95.1347 16.8764 103.025C18.3024 104.123 20.1074 102.129 18.7817 100.921C10.331 94.3293 3.03262 85.3511 3.54566 74.0923C4.15387 62.617 8.46556 51.2829 14.7659 41.7616C26.1886 24.577 45.2376 5.65049 66.7989 3.77346C89.8356 1.82602 104.706 29.8378 107.231 49.3243C109.932 70.2861 101.101 90.8445 84.0591 103.21C75.2824 109.564 64.6122 113.889 53.6225 113.778C40.9365 113.535 28.8538 108.283 18.7766 100.815C17.3607 99.9288 15.4555 102.033 16.8764 103.025Z" fill="#FFD586"/>
<path d="M1.3226 80.5576C7.49755 90.3313 17.8756 97.4668 29.2631 99.2549C41.5038 101.214 52.8504 95.5854 61.9874 87.9424C82.894 70.3051 98.0608 40.9655 90.9235 13.4325C90.5206 11.65 87.8166 12.5209 88.3248 14.2984C94.9437 39.8425 81.3354 66.4581 62.7317 83.6675C54.0366 91.7134 42.7411 98.3996 30.621 96.7524C19.565 95.2665 9.62373 88.4281 3.67995 79.0673C2.65504 77.5265 0.403075 79.0117 1.3226 80.5576Z" fill="#FFD586"/>
<path d="M4.13207 79.6816C21.6533 70.6846 38.034 59.9402 53.1688 47.4536C54.4877 46.3308 53.0005 43.9642 51.6816 45.087C36.5468 57.5736 20.0658 68.4287 2.64485 77.315C1.09991 78.1306 2.58713 80.4973 4.13207 79.6816Z" fill="#FFD586"/>
<path d="M58.8057 87.6703C57.6309 74.2665 58.5518 58.325 51.7377 46.2501C50.8182 44.7043 48.5662 46.1895 49.3804 47.7404C55.8477 59.1959 54.9167 74.926 56.0659 87.8011C56.258 89.5937 58.9978 89.4629 58.8057 87.6703Z" fill="#FFD586"/>
<path d="M83.4511 51.2014C73.4641 49.9824 63.647 47.9073 53.9948 44.8706C52.2782 44.3166 51.6681 46.9953 53.3847 47.5493C63.0369 50.586 72.854 52.6611 82.841 53.8801C84.5423 54.1169 85.1524 51.4381 83.4511 51.2014Z" fill="#FFD586"/>
<path d="M51.7683 46.8846C62.3363 33.8741 74.315 21.6441 89.0216 13.4173C90.5665 12.6017 89.0793 10.235 87.5344 11.0506C72.6221 19.3933 60.3324 31.7441 49.6693 44.9711C48.5764 46.401 50.6755 48.3145 51.7683 46.8846Z" fill="#FFD586"/>
<path d="M52.0182 45.4949C49.936 39.5532 47.8589 33.7172 45.7768 27.7755C44.0668 22.9819 42.7682 17.9567 39.719 13.8629C38.6992 12.4278 36.3419 13.9181 37.3617 15.3532C40.6369 19.7541 41.9713 25.5196 43.8019 30.6254C45.6376 35.8369 47.4784 41.1542 49.3141 46.3658C50.0331 48.1332 52.6318 47.2673 52.0182 45.4949Z" fill="#FFD586"/>
<path d="M50.3865 44.5129C38.8035 43.0521 27.2053 41.274 15.6019 39.3903C13.8955 39.0478 13.2905 41.8322 14.9918 42.069C26.5952 43.9527 38.1934 45.7308 49.7764 47.1916C51.5831 47.4233 52.1881 44.6389 50.3865 44.5129Z" fill="#FFD586"/>
<path d="M34.6606 77.5885C42.1609 68.8578 47.5926 58.8481 50.7503 47.675C51.1955 45.9581 48.5254 45.3436 48.0802 47.0606C45.1077 57.6949 39.8663 67.2716 32.6669 75.67C31.3633 77.11 33.4573 78.9178 34.6606 77.5885Z" fill="#FFD586"/>
<path d="M54.1019 47.0911C59.9027 46.9202 65.4214 45.279 70.2261 41.9762C71.6555 40.9541 70.1734 38.6932 68.7389 39.6095C64.235 42.5801 59.3435 44.0854 53.9642 44.2362C52.1779 44.4274 52.3105 47.1766 54.1019 47.0911Z" fill="#FFD586"/>
<path d="M82.2313 76.2718C82.1446 74.4742 79.4048 74.605 79.4915 76.4026C79.5782 78.2001 82.318 78.0694 82.2313 76.2718Z" fill="#FFD586"/>
<path d="M90.4321 84.253C90.3454 82.4555 87.6056 82.5862 87.6924 84.3838C87.7791 86.1814 90.5189 86.0506 90.4321 84.253Z" fill="#FFD586"/>
<path d="M101.082 72.9344C100.995 71.1368 98.2552 71.2676 98.3419 73.0652C98.4287 74.8627 101.168 74.732 101.082 72.9344Z" fill="#FFD586"/>
<path d="M92.9319 66.0105C92.8452 64.2129 90.1054 64.3437 90.1921 66.1413C90.2788 67.9389 93.0186 67.8081 92.9319 66.0105Z" fill="#FFD586"/>
<path d="M96.3681 45.2857C96.2814 43.4881 93.5416 43.6189 93.6283 45.4165C93.715 47.214 96.4548 47.0833 96.3681 45.2857Z" fill="#FFD586"/>
<path d="M67.7051 96.9961C67.9158 96.986 68.0212 96.981 68.232 96.9709C70.0234 96.8854 69.8907 94.1362 68.0993 94.2217C67.8886 94.2317 67.7832 94.2368 67.5724 94.2468C65.781 94.3323 65.9137 97.0816 67.7051 96.9961Z" fill="#FFD586"/>
<path d="M80.213 36.6242C83.2077 35.2095 86.318 34.0012 89.4385 33.0044C91.099 32.3952 90.2338 29.7869 88.5733 30.3961C85.4579 31.4986 82.3476 32.7069 79.3478 34.0159C77.7927 34.6201 78.5576 37.3391 80.213 36.6242Z" fill="#FFD586"/>
<path d="M18.9922 94.34C22.1823 92.5979 24.9306 90.4531 27.4477 87.8953C28.651 86.5661 26.6624 84.7533 25.3486 85.9818C23.0371 88.4238 20.3841 90.3521 17.3996 91.9784C15.8597 92.8997 17.4472 95.1556 18.9922 94.34Z" fill="#FFD586"/>
</svg>
