<svg width="59" height="76" viewBox="0 0 59 76" fill="none" xmlns="http://www.w3.org/2000/svg">
<path d="M20.3652 24.0339C19.7425 20.9522 18.8301 17.9635 17.6044 15.0775C17.437 15.2017 17.293 15.3163 17.1256 15.4405C19.9837 17.5119 22.7991 19.5462 25.0692 22.245C25.3314 22.5468 25.8335 22.1741 25.5616 21.8489C23.2488 19.1131 20.3907 17.0417 17.4995 14.9567C17.2625 14.7814 16.9044 15.0396 17.0207 15.3198C18.227 18.1591 19.1434 21.0914 19.737 24.103C19.8221 24.5058 20.4172 24.4229 20.3652 24.0339Z" fill="#FFA40C"/>
<path d="M17.9179 30.0055C13.5676 25.1314 7.1808 22.4718 0.65052 22.8286C0.728089 23.0155 0.805658 23.2023 0.883227 23.3891C3.58138 20.7904 8.81182 21.1923 12.2375 21.7959C15.875 22.4485 19.2938 23.9585 22.2568 26.1506C22.5793 26.4 22.9668 25.8831 22.621 25.6434C19.487 23.3033 15.8233 21.7307 11.9466 21.0953C8.42755 20.5305 3.26894 20.2356 0.510445 22.8868C0.292424 23.0868 0.424215 23.4702 0.743152 23.4473C7.03423 23.1076 13.2461 25.6755 17.4255 30.4016C17.6876 30.7034 18.1801 30.3073 17.9179 30.0055Z" fill="#FFA40C"/>
<path d="M23.7436 19.9754C23.774 15.5001 25.0234 11.2578 28.1346 7.94002C27.9364 7.85806 27.7712 7.78976 27.5729 7.70781C26.9545 12.8106 27.7732 17.9464 30.0216 22.5706C30.2001 22.9346 30.7838 22.6923 30.6053 22.3283C28.4189 17.7878 27.6021 12.7881 28.2029 7.77479C28.2499 7.4267 27.8495 7.31919 27.6412 7.54258C24.4793 10.9362 23.1617 15.3436 23.137 19.8987C23.1327 20.2838 23.749 20.3838 23.7436 19.9754Z" fill="#FFA40C"/>
<path d="M14.2872 21.6567C11.4982 16.9831 7.2014 12.9629 2.48504 10.2394C2.40314 10.4377 2.33489 10.6029 2.25299 10.8012C5.23761 11.0678 8.16546 11.6591 10.8591 13.0048C13.4963 14.3465 15.7284 16.2944 17.8905 18.2715C18.1896 18.5306 18.5636 18.0468 18.2547 17.7643C16.0733 15.7406 13.7751 13.7653 11.1048 12.4099C8.36841 11.0273 5.38418 10.432 2.34317 10.1614C2.06123 10.1416 1.8177 10.5439 2.11113 10.7232C6.78475 13.4097 11.0291 17.3695 13.8084 22.0198C13.9966 22.4071 14.489 22.011 14.2872 21.6567Z" fill="#FFA40C"/>
<path d="M15.4789 15.166C14.8951 10.3981 15.8095 4.95345 18.4179 0.886147C18.239 0.850896 18.0699 0.838998 17.8677 0.813441C19.3536 5.64479 20.7753 10.585 23.4986 14.9026C23.7238 15.2471 24.2162 14.851 23.991 14.5065C21.2871 10.2356 19.9082 5.3324 18.4416 0.547754C18.3777 0.327887 18.0297 0.280739 17.8914 0.475049C15.2147 4.70758 14.2555 10.3078 14.8507 15.2352C14.9124 15.6476 15.5309 15.5551 15.4789 15.166Z" fill="#FFA40C"/>
<path d="M11.655 12.4826C10.2839 9.24632 8.02349 6.57089 5.80976 3.87607C5.68512 4.03734 5.56048 4.1986 5.43584 4.35987C8.9272 5.31955 12.0346 7.06837 14.6355 9.57505C14.921 9.86718 15.3086 9.35034 14.9997 9.0679C12.3657 6.54757 9.20594 4.73838 5.69124 3.78839C5.41325 3.71216 5.09789 4.00737 5.31733 4.27218C7.48832 6.92999 9.71965 9.53536 11.0714 12.725C11.2265 13.0986 11.8102 12.8563 11.655 12.4826Z" fill="#FFA40C"/>
<path d="M23.1778 23.3589C23.6479 23.766 24.0577 24.2256 24.4305 24.7279C24.679 25.0627 25.1714 24.6666 24.9229 24.3318C24.5307 23.7828 24.0549 23.2959 23.5653 22.842C23.2428 22.5926 22.8786 23.0998 23.1778 23.3589Z" fill="#FFA40C"/>
<path d="M33.5759 22.9566C25.0071 22.1613 16.4001 29.1846 13.9797 37.1985C12.5137 42.1056 13.6319 47.1718 15.2152 51.908C16.2307 54.8813 17.5225 57.7946 19.0049 60.574C20.3283 63.0362 21.7275 65.549 23.5257 67.7045C25.1045 69.5952 27.1541 71.2357 29.1165 72.6659C31.0692 74.0728 33.139 75.1025 35.5558 75.3859C40.7373 75.9997 45.9269 74.721 50.3365 71.9593C54.0338 69.6576 56.9446 66.4503 58.1376 62.2041C59.397 57.6566 58.6291 52.445 57.2049 48.026C56.1778 44.8933 54.4253 41.9248 52.8243 39.0577C51.3009 36.3775 49.6374 33.7553 47.6722 31.3954C44.0427 27.0707 39.2513 23.6392 33.5759 22.9566C33.1715 22.9055 33.1046 23.5356 33.476 23.5731C44.1075 24.8536 50.1706 35.0397 54.5846 43.693C58.5699 51.5113 60.4028 62.3861 53.2645 68.9913C49.5679 72.4153 44.4842 74.6082 39.4592 74.8329C37.0711 74.9484 34.5394 74.8496 32.3334 73.8217C30.0615 72.7664 28.1382 71.1008 26.2577 69.4723C22.3025 66.0769 19.7764 61.0477 17.668 56.3653C15.5402 51.6362 13.4951 46.0513 13.9328 40.7772C14.6803 31.5688 24.0186 22.6812 33.4993 23.5634C33.8804 23.6242 33.9706 22.9844 33.5759 22.9566Z" fill="#FFA40C"/>
<path d="M33.1797 71.7728C32.9043 71.1753 32.6658 70.5351 32.5305 69.8795C32.4705 69.6032 32.4008 69.3036 32.3973 69.0313C32.3844 68.407 32.5072 68.1096 33.1336 67.9042C34.3533 67.4799 35.8808 68.3242 36.9496 68.9207C37.3091 69.1274 37.5315 68.5423 37.1953 68.3259C36.0507 67.6787 33.569 66.3819 32.3252 67.4733C31.1047 68.555 32.0549 70.8436 32.5864 71.9918C32.7746 72.3791 33.3582 72.1368 33.1797 71.7728Z" fill="#FFA40C"/>
<path d="M42.3908 65.3474C42.0809 64.2714 41.3261 61.1351 43.4666 61.4784C44.5768 61.6471 45.6668 62.4266 46.5255 63.1104C46.848 63.3598 47.2123 62.8527 46.8897 62.6033C45.8134 61.7908 43.6276 60.1521 42.2071 61.0157C40.7866 61.8793 41.4293 64.3503 41.7838 65.5994C41.9389 65.9731 42.5225 65.7307 42.3908 65.3474Z" fill="#FFA40C"/>
<path d="M50.6119 58.9771C50.302 57.9011 49.5472 54.7648 51.6878 55.108C52.798 55.2768 53.888 56.0562 54.7467 56.7401C55.0692 56.9895 55.4334 56.4823 55.1109 56.2329C54.0345 55.4204 51.8488 53.7818 50.4282 54.6454C49.0077 55.509 49.6505 57.9799 50.0049 59.2291C50.1367 59.6124 50.7204 59.3701 50.6119 58.9771Z" fill="#FFA40C"/>
<path d="M34.0831 62.2806C33.8077 61.6832 33.5693 61.043 33.4339 60.3873C33.3739 60.1111 33.3043 59.8114 33.3007 59.5391C33.2878 58.9148 33.4106 58.6174 34.037 58.4121C35.2567 57.9878 36.7842 58.832 37.8531 59.4286C38.2126 59.6352 38.4349 59.0501 38.0987 58.8338C36.9541 58.1865 34.4724 56.8897 33.2286 57.9811C32.0081 59.0628 32.9583 61.3514 33.4898 62.4996C33.678 62.8869 34.2616 62.6446 34.0831 62.2806Z" fill="#FFA40C"/>
<path d="M24.6772 67.4455C24.4017 66.848 24.1633 66.2078 24.0279 65.5522C23.968 65.2759 23.8983 64.9763 23.8947 64.704C23.8818 64.0796 24.0047 63.7822 24.631 63.5769C25.8508 63.1526 27.3782 63.9968 28.4471 64.5934C28.8066 64.8001 29.0289 64.2149 28.6928 63.9986C27.5482 63.3513 25.0664 62.0546 23.8226 63.146C22.6021 64.2277 23.5523 66.5162 24.0838 67.6645C24.2487 68.0615 24.8323 67.8191 24.6772 67.4455Z" fill="#FFA40C"/>
<path d="M43.2942 55.8552C42.9843 54.7793 42.2295 51.6429 44.3701 51.9862C45.4802 52.155 46.5702 52.9344 47.4289 53.6183C47.7515 53.8677 48.1157 53.3605 47.7932 53.1111C46.7168 52.2986 44.531 50.66 43.1105 51.5235C41.69 52.3871 42.3327 54.8581 42.6872 56.1073C42.8423 56.4809 43.426 56.2386 43.2942 55.8552Z" fill="#FFA40C"/>
<path d="M51.5153 49.4849C51.2054 48.4089 50.4506 45.2726 52.5912 45.6158C53.7014 45.7846 54.7914 46.5641 55.6501 47.2479C55.9726 47.4973 56.3368 46.9901 56.0143 46.7408C54.9379 45.9283 52.7522 44.2896 51.3317 45.1532C49.9111 46.0168 50.5539 48.4878 50.9083 49.7369C51.0635 50.1105 51.6238 49.8779 51.5153 49.4849Z" fill="#FFA40C"/>
<path d="M51.0151 41.4243C50.7012 40.4047 50.1532 38.3598 51.2042 37.5949C51.5389 37.3464 51.1428 36.8538 50.8081 37.1023C49.4924 38.0866 50.0479 40.3474 50.4314 41.6666C50.5632 42.0499 51.1469 41.8076 51.0151 41.4243Z" fill="#FFA40C"/>
<path d="M50.47 67.4686C50.1601 66.3926 49.4053 63.2563 51.5459 63.5995C52.656 63.7683 53.746 64.5478 54.6047 65.2316C54.9273 65.481 55.2915 64.9739 54.969 64.7245C53.8926 63.912 51.7068 62.2733 50.2863 63.1369C48.8658 64.0005 49.5085 66.4715 49.863 67.7206C49.9948 68.1039 50.5784 67.8616 50.47 67.4686Z" fill="#FFA40C"/>
<path d="M25.4153 59.6647C25.1399 59.0672 24.9014 58.427 24.766 57.7713C24.7061 57.4951 24.6364 57.1955 24.6328 56.9232C24.6199 56.2988 24.7428 56.0014 25.3692 55.7961C26.5889 55.3718 28.1164 56.216 29.1852 56.8126C29.5447 57.0193 29.7671 56.4341 29.4309 56.2178C28.2863 55.5705 25.8045 54.2737 24.5607 55.3651C23.3402 56.4468 24.2905 58.7354 24.822 59.8837C25.0101 60.271 25.5938 60.0286 25.4153 59.6647Z" fill="#FFA40C"/>
<path d="M34.6497 53.2296C34.3398 52.1536 33.585 49.0173 35.7255 49.3605C36.8357 49.5293 37.9257 50.3087 38.7844 50.9926C39.1069 51.242 39.4712 50.7348 39.1486 50.4854C38.0723 49.6729 35.8865 48.0343 34.466 48.8979C33.0455 49.7615 33.6882 52.2324 34.0427 53.4816C34.1745 53.8649 34.7581 53.6226 34.6497 53.2296Z" fill="#FFA40C"/>
<path d="M42.8475 46.8689C42.5376 45.7929 41.7828 42.6566 43.9234 42.9999C45.0335 43.1686 46.1235 43.9481 46.9822 44.6319C47.3048 44.8813 47.669 44.3742 47.3465 44.1248C46.2701 43.3123 44.0843 41.6736 42.6638 42.5372C41.2433 43.4008 41.886 45.8718 42.2405 47.1209C42.3956 47.4946 42.9793 47.2522 42.8475 46.8689Z" fill="#FFA40C"/>
<path d="M26.5332 49.7002C26.2577 49.1027 26.0193 48.4625 25.8839 47.8068C25.8239 47.5306 25.7543 47.231 25.7507 46.9587C25.7378 46.3343 25.8606 46.0369 26.487 45.8316C27.7068 45.4073 29.2342 46.2515 30.3031 46.8481C30.6626 47.0547 30.8849 46.4696 30.5487 46.2533C29.4041 45.606 26.9224 44.3092 25.6786 45.4006C24.4581 46.4823 25.4083 48.7709 25.9398 49.9191C26.128 50.3064 26.7116 50.0641 26.5332 49.7002Z" fill="#FFA40C"/>
<path d="M35.7442 43.2748C35.4343 42.1988 34.6795 39.0625 36.8201 39.4057C37.9302 39.5745 39.0202 40.3539 39.8789 41.0378C40.2015 41.2872 40.5657 40.78 40.2432 40.5306C39.1668 39.7181 36.981 38.0795 35.5605 38.9431C34.14 39.8067 34.7827 42.2776 35.1372 43.5268C35.2826 43.8771 35.8663 43.6347 35.7442 43.2748Z" fill="#FFA40C"/>
<path d="M19.2629 37.3321C18.9875 36.7346 18.749 36.0944 18.6137 35.4387C18.5537 35.1625 18.484 34.8628 18.4805 34.5906C18.4676 33.9662 18.5904 33.6688 19.2168 33.4635C20.4365 33.0392 21.964 33.8834 23.0328 34.48C23.3923 34.6866 23.6147 34.1015 23.2785 33.8852C22.1339 33.2379 19.6522 31.9411 18.4084 33.0325C17.1879 34.1142 18.1381 36.4028 18.6696 37.5511C18.8344 37.948 19.4181 37.7057 19.2629 37.3321Z" fill="#FFA40C"/>
<path d="M28.4739 30.9066C28.164 29.8306 27.4092 26.6943 29.5498 27.0376C30.66 27.2064 31.75 27.9858 32.6087 28.6697C32.9312 28.919 33.2954 28.4119 32.9729 28.1625C31.8966 27.35 29.7108 25.7114 28.2903 26.5749C26.8698 27.4385 27.5125 29.9095 27.867 31.1587C27.989 31.5186 28.5727 31.2763 28.4739 30.9066Z" fill="#FFA40C"/>
<path d="M43.9653 36.9044C43.6554 35.8284 42.9006 32.6921 45.0412 33.0354C46.1514 33.2041 47.2414 33.9836 48.1001 34.6674C48.4226 34.9168 48.7868 34.4097 48.4643 34.1603C47.388 33.3478 45.2022 31.7091 43.7817 32.5727C42.3611 33.4363 43.0039 35.9073 43.3583 37.1564C43.4901 37.5397 44.0641 37.2741 43.9653 36.9044Z" fill="#FFA40C"/>
<path d="M18.0991 55.2281C17.7892 54.1521 17.0344 51.0158 19.1749 51.359C20.2851 51.5278 21.3751 52.3073 22.2338 52.9911C22.5564 53.2405 22.9206 52.7333 22.5981 52.484C21.5217 51.6715 19.3359 50.0328 17.9154 50.8964C16.4949 51.76 17.1376 54.231 17.4921 55.4801C17.6239 55.8634 18.2075 55.6211 18.0991 55.2281Z" fill="#FFA40C"/>
<path d="M18.1045 47.067C17.8291 46.4695 17.5906 45.8293 17.4552 45.1737C17.3953 44.8974 17.3256 44.5978 17.322 44.3255C17.3091 43.7011 17.432 43.4037 18.0584 43.1984C19.2781 42.7741 20.8056 43.6183 21.8744 44.2149C22.2339 44.4216 22.4563 43.8364 22.1201 43.6201C20.9755 42.9728 18.4937 41.6761 17.2499 42.7675C16.0294 43.8492 16.9797 46.1377 17.5112 47.286C17.6993 47.6733 18.283 47.431 18.1045 47.067Z" fill="#FFA40C"/>
<path d="M27.3155 40.6416C27.0056 39.5656 26.2508 36.4293 28.3914 36.7725C29.5016 36.9413 30.5916 37.7208 31.4503 38.4046C31.7728 38.654 32.137 38.1468 31.8145 37.8974C30.7381 37.0849 28.5524 35.4463 27.1318 36.3099C25.7113 37.1735 26.3541 39.6444 26.7085 40.8936C26.8403 41.2769 27.424 41.0346 27.3155 40.6416Z" fill="#FFA40C"/>
<path d="M35.5367 34.2712C35.2268 33.1952 34.472 30.0589 36.6126 30.4022C37.7227 30.571 38.8127 31.3504 39.6715 32.0342C39.994 32.2836 40.3582 31.7765 40.0357 31.5271C38.9593 30.7146 36.7735 29.0759 35.353 29.9395C33.9325 30.8031 34.5753 33.2741 34.9297 34.5232C35.0615 34.9066 35.6451 34.6642 35.5367 34.2712Z" fill="#FFA40C"/>
<path d="M41.6311 73.2741C41.3212 72.1981 40.5664 69.0618 42.707 69.405C43.8171 69.5738 44.9071 70.3533 45.7659 71.0371C46.0884 71.2865 46.4526 70.7793 46.1301 70.5299C45.0537 69.7174 42.8679 68.0788 41.4474 68.9424C40.0269 69.806 40.6697 72.2769 41.0241 73.5261C41.1695 73.8764 41.7532 73.634 41.6311 73.2741Z" fill="#FFA40C"/>
</svg>
