<svg width="17" height="18" viewBox="0 0 17 18" fill="none" xmlns="http://www.w3.org/2000/svg">
<path d="M7.38158 3.92937V5.36735L8.10018 4.62479L7.38158 3.92937ZM7.38158 3.92937H6.38158V4.9627L7.38158 3.92937ZM8.50244 17H8.5C8.47929 17 8.46609 16.9982 8.45895 16.9968C8.45203 16.9955 8.44893 16.9943 8.44816 16.9939C8.44742 16.9936 8.44581 16.9929 8.44258 16.9907C8.4392 16.9884 8.43192 16.9828 8.42116 16.9717C8.40156 16.9515 8.39579 16.939 8.39289 16.9316C8.38958 16.9231 8.38146 16.8985 8.38158 16.8466V16.8443V3.92937V1.45807L6.66298 3.23395L1.21068 8.86798C1.17991 8.89977 1.1637 8.90625 1.16343 8.90636C1.16227 8.90687 1.16069 8.90747 1.15743 8.90813C1.15402 8.90882 1.14596 8.91011 1.13184 8.91011C1.11772 8.91011 1.10973 8.90882 1.10644 8.90815C1.10332 8.90752 1.10193 8.90697 1.101 8.90657C1.10002 8.90614 1.09632 8.90446 1.08958 8.89967C1.08265 8.89475 1.07101 8.88548 1.05529 8.86918L1.05413 8.86798C1.02076 8.8335 1.0107 8.81219 1.00759 8.80469C1.0048 8.79799 1 8.78446 1 8.75441C1 8.72436 1.0048 8.71084 1.00759 8.70413C1.0107 8.69663 1.02076 8.67532 1.05413 8.64085L8.43571 1.01324C8.43829 1.01057 8.44056 1.00833 8.44252 1.00646C8.45663 1.00312 8.47598 1.00031 8.50254 1.00001C8.52116 1.00013 8.53877 1.00166 8.55593 1.0046L8.56429 1.01324L15.9459 8.64085C15.9792 8.67532 15.9893 8.69663 15.9924 8.70413C15.9952 8.71084 16 8.72436 16 8.75441C16 8.78446 15.9952 8.79799 15.9924 8.80469C15.9893 8.81219 15.9792 8.8335 15.9459 8.86798C15.9156 8.8993 15.8994 8.90605 15.8986 8.90635L15.8986 8.90636C15.8975 8.90687 15.8959 8.90747 15.8926 8.90813C15.8892 8.90882 15.8812 8.91011 15.867 8.91011C15.8529 8.91011 15.8449 8.90882 15.8416 8.90815C15.8385 8.90752 15.8371 8.90697 15.8362 8.90657C15.8352 8.90614 15.8315 8.90446 15.8248 8.89967C15.8178 8.89475 15.8062 8.88548 15.7905 8.86918L15.7893 8.86798L10.337 3.23395L8.61842 1.45807V3.92937V16.8443C8.61842 16.9295 8.60026 16.9496 8.57772 16.9729C8.56695 16.984 8.55974 16.9895 8.55651 16.9917C8.55344 16.9938 8.55207 16.9944 8.55168 16.9945C8.55125 16.9947 8.54856 16.9958 8.54209 16.9971C8.53541 16.9983 8.52268 17 8.50244 17ZM8.5 18C8.18311 18 7.9173 17.889 7.70256 17.6672C7.48783 17.4453 7.38083 17.171 7.38158 16.8443L8.5 18Z" fill="black" stroke="white" stroke-width="2"/>
</svg>
