<svg width="54" height="54" viewBox="0 0 54 54" fill="none" xmlns="http://www.w3.org/2000/svg">
<path d="M16.7563 9.5L10.5063 13L14.0063 6.75L10.5063 0.5L16.7563 4L23.0062 0.5L19.5063 6.75L23.0062 13L16.7563 9.5ZM46.7563 34L53.0063 30.5L49.5063 36.75L53.0063 43L46.7563 39.5L40.5063 43L44.0062 36.75L40.5063 30.5L46.7563 34ZM53.0063 0.5L49.5063 6.75L53.0063 13L46.7563 9.5L40.5063 13L44.0062 6.75L40.5063 0.5L46.7563 4L53.0063 0.5ZM31.3562 27.45L37.4562 21.35L32.1562 16.05L26.0562 22.15L31.3562 27.45ZM33.9312 13.725L39.7812 19.575C40.7562 20.5 40.7562 22.125 39.7812 23.1L10.6062 52.275C9.63125 53.25 8.00625 53.25 7.08125 52.275L1.23125 46.425C0.25625 45.5 0.25625 43.875 1.23125 42.9L30.4062 13.725C31.3812 12.75 33.0062 12.75 33.9312 13.725Z" fill="#7985CB"/>
</svg>
