<svg width="28" height="39" viewBox="0 0 28 39" fill="none" xmlns="http://www.w3.org/2000/svg">
<path d="M2.95868 2.4874C11.3362 13.1459 17.9844 24.9566 22.6806 37.6861C22.988 38.5128 24.2716 37.9532 23.9642 37.1265C19.215 24.291 12.4713 12.3425 4.00902 1.62027C3.45759 0.941495 2.36483 1.77678 2.95868 2.4874Z" fill="#53B72C"/>
<path d="M24.2504 37.8049C27.2536 32.3113 28.0295 25.8081 26.2912 19.7356C24.288 12.8681 19.0491 7.4791 13.0037 3.86856C10.4794 2.37122 6.75676 -0.091852 3.7442 0.0308855C1.36811 0.101582 1.24005 3.4489 1.06994 5.17537C0.495684 11.4988 2.73234 18.1441 6.04065 23.5409C10.0488 30.1252 16.0833 35.2506 22.9986 38.5869C23.8153 39.0013 24.3459 37.6779 23.4974 37.3059C17.0276 34.1714 11.4279 29.4386 7.56817 23.363C5.47923 20.1396 3.98439 16.5675 3.073 12.8373C2.68091 11.1524 2.43733 9.44648 2.38468 7.75147C2.3425 6.66029 2.4064 5.5163 2.55515 4.43599C2.76769 2.74136 2.61948 1.43816 5.08036 1.69599C6.85177 1.89984 8.84569 3.13157 10.4048 3.97071C12.1654 4.89489 13.873 5.9779 15.4851 7.18789C18.6243 9.54418 21.4346 12.5144 23.3007 16.0341C26.9058 22.7132 26.6069 30.7001 22.9671 37.3051C22.5108 38.0884 23.7941 38.5881 24.2504 37.8049Z" fill="#53B72C"/>
<path d="M26.9262 26.0395C24.2853 24.5208 20.7534 22.8631 17.656 22.6574C16.7756 22.5925 16.595 23.98 17.4754 24.0448C20.2651 24.2184 23.6274 25.7487 26.0243 27.1505C26.8834 27.5967 27.7111 26.4962 26.9262 26.0395Z" fill="#53B72C"/>
<path d="M13.5418 16.1259C15.3133 16.0649 17.1907 16.4807 18.9303 16.7269C20.6275 16.9413 22.367 17.1874 24.0429 17.5183C24.9021 17.6996 25.0827 16.3121 24.2236 16.1308C20.7869 15.4055 16.8835 14.5947 13.383 14.7485C12.439 14.7683 12.6402 16.1775 13.5418 16.1259Z" fill="#53B72C"/>
<path d="M8.10205 8.00343C10.9555 7.8275 13.9149 8.12842 16.7364 8.78931C17.5955 8.97064 17.7443 7.6255 16.917 7.40184C14.0107 6.67726 10.9452 6.42916 7.90083 6.59422C7.04161 6.67772 7.20041 8.05509 8.10205 8.00343Z" fill="#53B72C"/>
<path d="M8.8653 10.1656C6.58415 12.4928 4.14349 16.6207 4.50338 19.9369C4.58804 20.7951 5.96706 20.6382 5.91422 19.7377C5.62846 16.9406 7.8569 13.1832 9.77729 11.2474C10.2972 10.6444 9.49129 9.50971 8.8653 10.1656Z" fill="#53B72C"/>
<path d="M12.7779 17.1417C10.9845 20.2324 9.75326 23.5463 9.15844 27.073C9.02034 27.9627 10.3675 28.1129 10.548 27.2551C11.1003 23.9614 12.2148 20.8909 13.8809 17.9696C14.3053 17.2287 13.2023 16.4008 12.7779 17.1417Z" fill="#53B72C"/>
<path d="M19.044 29.7251C18.2587 31.1223 17.7068 32.5622 17.3988 34.119C17.2183 34.9768 18.6079 35.1589 18.7884 34.3011C19.022 33.0196 19.4891 31.7809 20.1576 30.6272C20.6033 29.7698 19.5003 28.9419 19.044 29.7251Z" fill="#53B72C"/>
</svg>
