<svg width="50" height="15" viewBox="0 0 50 15" fill="none" xmlns="http://www.w3.org/2000/svg">
<path d="M33.0208 0.0018832C32.9929 0.00190801 32.9649 0.00443203 32.9375 0.00941958C31.5208 0.367424 31.8063 2.17252 29.2271 2.32703H28.9771C28.9407 2.32644 28.9044 2.3296 28.8688 2.33645H28.8667C28.7569 2.36027 28.6593 2.417 28.5896 2.4974C28.52 2.57779 28.4826 2.67713 28.4833 2.77924V4.83305C28.4833 5.08554 28.7042 5.28715 28.9771 5.28715H30.3208V13.998C30.3208 14.2467 30.5375 14.4464 30.8063 14.4464H33.0104C33.1405 14.4449 33.2645 14.3969 33.3555 14.3128C33.4465 14.2288 33.497 14.1156 33.4958 13.998V5.28715H34.7458C35.0167 5.28715 35.2375 5.08554 35.2375 4.83305V2.77924C35.2381 2.66045 35.1867 2.54628 35.0946 2.46158C35.0025 2.37688 34.8772 2.32852 34.7458 2.32703H33.4708V0.41453C33.4714 0.360587 33.4602 0.307076 33.4379 0.257049C33.4156 0.207023 33.3826 0.161462 33.3408 0.122968C33.299 0.0844752 33.2492 0.0538035 33.1943 0.0327044C33.1394 0.0116052 33.0805 0.00237581 33.0208 0.0018832ZM41.8229 2.20643C40.9938 2.20643 40.2354 2.48907 39.6521 2.95071V2.71706C39.6447 2.60405 39.5904 2.49773 39.5 2.41944C39.4096 2.34116 39.2897 2.2967 39.1646 2.29499H36.9354C36.8035 2.29698 36.6779 2.34601 36.5858 2.43142C36.4937 2.51683 36.4426 2.63169 36.4438 2.75098V13.9056C36.4426 14.0249 36.4937 14.1398 36.5858 14.2252C36.6779 14.3106 36.8035 14.3596 36.9354 14.3616H39.1646C39.4146 14.3616 39.6167 14.1902 39.65 13.9678V5.95983C39.6415 5.76558 39.7177 5.57608 39.8624 5.43225C40.007 5.28842 40.2083 5.20179 40.4229 5.19106H40.8313C41.0036 5.2032 41.1677 5.26233 41.3021 5.36064C41.399 5.43398 41.4764 5.52606 41.5287 5.6301C41.581 5.73413 41.6068 5.84746 41.6042 5.96171V13.6381L41.6125 13.9301C41.6119 14.0494 41.6635 14.1641 41.756 14.2491C41.8485 14.3342 41.9744 14.3827 42.1063 14.3842H44.3354C44.4628 14.3824 44.5846 14.3364 44.6757 14.2558C44.7668 14.1752 44.8202 14.066 44.825 13.9509L44.8229 5.9504C44.8229 5.68661 44.9521 5.4492 45.1854 5.30977C45.3075 5.23677 45.4479 5.19271 45.5938 5.18164H46.0063C46.4854 5.21932 46.7771 5.55848 46.7771 5.9504C46.7875 8.58079 46.7854 11.2263 46.7854 13.9094C46.7849 14.0287 46.8364 14.1433 46.9289 14.2284C47.0214 14.3135 47.1473 14.362 47.2792 14.3635H49.5083C49.7792 14.3635 50 14.16 50 13.9094V5.34933C50 4.76522 49.9292 4.5165 49.8333 4.26213C49.6113 3.66583 49.1886 3.14725 48.6246 2.77898C48.0605 2.4107 47.3832 2.21118 46.6875 2.20832H46.6563C46.2063 2.20864 45.7611 2.29241 45.3483 2.45445C44.9355 2.6165 44.5638 2.85337 44.2563 3.15044C43.65 2.57009 42.7979 2.20832 41.8542 2.20832L41.8229 2.20643ZM0.483351 2.32514C0.419331 2.32563 0.356045 2.33753 0.297107 2.36014C0.23817 2.38276 0.184734 2.41565 0.139852 2.45694C0.0949697 2.49823 0.0595202 2.54712 0.0355274 2.6008C0.0115346 2.65449 -0.000531559 2.71192 1.79592e-05 2.76982V13.932C1.79592e-05 14.1807 0.200018 14.3805 0.450018 14.3861H2.72085C2.99168 14.3861 3.2146 14.1845 3.2146 13.9339L3.22293 10.8098H5.35418C7.1396 10.8098 8.38126 9.66988 8.38126 8.01929V5.12134C8.38126 3.46887 7.1396 2.32514 5.35418 2.32514H0.483351ZM19.3 2.32514C19.2346 2.32563 19.17 2.33777 19.1098 2.36086C19.0496 2.38395 18.995 2.41753 18.9491 2.4597C18.9033 2.50187 18.8671 2.55179 18.8426 2.60662C18.818 2.66144 18.8057 2.7201 18.8063 2.77924V7.43329C18.8063 9.20447 20.175 10.4631 22.0958 10.4631H23.5021C23.5021 10.4631 23.5354 10.4631 23.5792 10.4707C23.7075 10.485 23.8255 10.5415 23.9108 10.6294C23.9961 10.7173 24.0426 10.8305 24.0417 10.9474C24.0417 11.1923 23.8417 11.3902 23.5854 11.4203L23.5479 11.4279L22.9167 11.4392H20.2896C20.1583 11.4407 20.0329 11.489 19.9408 11.5737C19.8487 11.6584 19.7974 11.7726 19.7979 11.8914V13.9452C19.7968 14.0645 19.8479 14.1793 19.9399 14.2648C20.032 14.3502 20.1577 14.3992 20.2896 14.4012H23.9354C25.8521 14.4012 27.2208 13.1406 27.2208 11.3713V2.77924C27.2214 2.66045 27.17 2.54628 27.078 2.46158C26.9859 2.37688 26.8605 2.32852 26.7292 2.32703H24.5C24.3687 2.32852 24.2433 2.37688 24.1512 2.46158C24.0591 2.54628 24.0078 2.66045 24.0083 2.77924C23.9979 4.26213 24.0083 5.6527 24.0083 7.02818C24.0067 7.15266 23.9513 7.27163 23.854 7.35965C23.7567 7.44768 23.6251 7.49778 23.4875 7.49924H22.5521C22.4127 7.49775 22.2796 7.44635 22.1819 7.3563C22.0843 7.26624 22.0301 7.14487 22.0313 7.01876C22.0417 5.59805 22.0208 4.19242 22.0208 2.77924C22.0214 2.66045 21.97 2.54628 21.878 2.46158C21.7859 2.37688 21.6605 2.32852 21.5292 2.32703L19.3 2.32514ZM10.9583 2.33645C10.8949 2.33494 10.8317 2.34477 10.7724 2.36536C10.7131 2.38595 10.6589 2.4169 10.6129 2.45645C10.5668 2.49599 10.5298 2.54336 10.504 2.59583C10.4782 2.64831 10.4641 2.70487 10.4625 2.76228V4.68985C10.4625 4.93857 10.6979 5.14207 10.9875 5.14207H13.9313C14.1646 5.1741 14.3479 5.33049 14.375 5.57544V5.83923C14.3479 6.07288 14.1667 6.24246 13.9438 6.2613H12.4854C10.5479 6.2613 9.1646 7.44837 9.1646 9.11591V11.507C9.1646 13.1651 10.3521 14.3447 12.2792 14.3447H16.3208C17.0458 14.3447 17.6333 13.8359 17.6333 13.2141V5.42094C17.6333 3.52917 16.575 2.33645 14.05 2.33645H10.9583ZM3.22293 5.29846H4.63543C4.92502 5.29846 5.15627 5.51515 5.15627 5.78082V7.35604C5.15709 7.41864 5.14427 7.48078 5.11855 7.53891C5.09282 7.59703 5.05468 7.65 5.00632 7.69479C4.95795 7.73958 4.90031 7.77532 4.83667 7.79996C4.77303 7.8246 4.70465 7.83767 4.63543 7.83841H4.4271C4.0271 7.84217 3.62293 7.83841 3.22293 7.83841V5.29846ZM12.9521 9.02359H13.8792C14.1688 9.02359 14.4042 9.22708 14.4042 9.4758V11.2319C14.4035 11.2808 14.3936 11.3292 14.375 11.3751C14.3379 11.4667 14.2703 11.5456 14.1815 11.601C14.0927 11.6563 13.987 11.6854 13.8792 11.6841H12.9521C12.8163 11.6867 12.6849 11.6405 12.5866 11.5558C12.4882 11.4711 12.4309 11.3547 12.4271 11.2319V9.47392C12.4271 9.2252 12.6625 9.02359 12.9521 9.02359Z" fill="#0000FF"/>
</svg>
