<svg width="483" height="360" viewBox="0 0 483 360" fill="none" xmlns="http://www.w3.org/2000/svg">
<path d="M462.111 313.347C299.668 235.471 151.076 133.707 20.3589 9.52968C11.8404 1.47914 -0.17657 15.686 8.34194 23.7366C140.313 148.866 290.853 251.713 454.681 329.851C465.24 334.705 473.363 318.332 462.111 313.347Z" fill="#53B72C"/>
<path d="M0.946808 17.33C-2.60171 100.45 26.3292 182.53 82.702 244.715C146.901 314.821 240.992 348.307 334.257 355.856C373.139 358.886 431.977 366.393 467.169 347.243C495.08 332.451 476.954 291.795 468.846 270.215C438.568 191.463 372.891 125.376 301.768 80.4627C215.332 25.5025 113.304 -0.169133 11.2787 0.657162C-0.88946 0.512588 0.553891 19.4044 12.853 18.8575C108.382 18.2394 202.922 41.7838 284.603 91.5509C328.43 117.713 367.221 151.521 399.986 190.638C414.552 208.422 427.47 227.327 438.049 247.225C444.958 259.985 450.913 273.997 455.482 287.749C462.897 309.199 472.315 323.864 441.465 335.238C419.152 343.208 388.151 340.23 364.638 339.38C338.224 338.7 311.51 335.814 285.189 330.854C233.932 321.195 182.992 302.286 140.082 271.283C57.8946 212.827 14.5663 115.86 19.1801 15.7529C20.0213 3.73693 1.78802 5.31402 0.946808 17.33Z" fill="#53B72C"/>
<path d="M38.122 173.294C78.5205 175.893 130.357 174.919 168.488 159.188C179.364 154.792 173.372 137.192 162.496 141.588C128.221 155.897 79.1552 157.393 42.3509 154.755C29.4901 154.48 26.0849 172.458 38.122 173.294Z" fill="#53B72C"/>
<path d="M255.88 212.896C235.12 224.023 210.298 230.088 188.115 237.366C166.625 244.775 144.442 252.053 122.521 257.948C111.215 260.83 117.207 278.431 128.513 275.549C173.74 264.019 225.032 250.768 265.859 228.383C276.997 222.605 266.325 206.987 255.88 212.896Z" fill="#53B72C"/>
<path d="M368.413 277.787C335.43 296.637 298.384 310.424 260.87 319.11C249.563 321.992 255.686 338.901 266.862 336.71C305.762 328.286 343.762 313.246 379.085 293.405C388.838 287.365 378.859 271.878 368.413 277.787Z" fill="#53B72C"/>
<path d="M346.621 256.493C360.151 215.358 365.012 151.821 341.253 114.401C335.205 104.667 319.687 114.634 325.604 125.058C345.431 156.724 340.926 214.599 329.397 248.95C326.74 259.192 343.009 267.987 346.621 256.493Z" fill="#53B72C"/>
<path d="M259.023 196.301C262.257 148.929 257.478 102.195 243.864 56.6605C240.288 45.2443 223.346 51.3618 226.23 62.6474C238.983 105.155 243.724 148.301 241.014 192.907C240.303 204.232 258.313 207.625 259.023 196.301Z" fill="#53B72C"/>
<path d="M110.448 83.0818C111.606 61.8157 109.732 41.4105 104.264 21.0441C101.38 9.75842 83.7462 15.7454 86.6302 27.031C91.3681 43.6791 93.0734 61.1879 91.8771 78.8661C91.5975 91.704 109.607 95.0978 110.448 83.0818Z" fill="#53B72C"/>
</svg>
