<svg width="14" height="15" viewBox="0 0 14 15" fill="none" xmlns="http://www.w3.org/2000/svg">
<path d="M2.32952 12.859C4.55499 14.511 7.31106 15.0547 9.80985 13.6869C12.1971 12.3753 13.6984 9.80645 13.5792 7.07287C13.5226 5.63587 13.0593 4.19279 12.2651 2.99485C11.5941 1.98214 10.5653 0.922796 9.32124 0.66366C6.53922 0.108449 3.89294 2.63002 2.32484 4.60324C1.30756 5.88765 0.582471 7.43841 0.420891 9.08968C0.268913 10.6768 1.11564 11.9104 2.32952 12.859C2.50094 12.991 2.71792 12.7513 2.55855 12.606C1.54266 11.8136 0.665293 10.7343 0.726967 9.38085C0.800083 8.00136 1.31841 6.63884 2.07579 5.49424C3.44898 3.4284 5.73893 1.15317 8.33091 0.927523C11.1002 0.693411 12.8879 4.06083 13.1914 6.40338C13.5161 8.92329 12.4545 11.3947 10.4058 12.8812C9.35074 13.6451 8.06804 14.165 6.74692 14.1516C5.22188 14.1225 3.76936 13.491 2.55794 12.5933C2.38774 12.4868 2.1587 12.7398 2.32952 12.859Z" fill="#FFD586"/>
<path d="M0.459725 10.1581C1.20204 11.333 2.44963 12.1908 3.81857 12.4058C5.29008 12.6413 6.6541 11.9646 7.75249 11.0458C10.2658 8.92557 12.089 5.39854 11.231 2.08867C11.1826 1.87439 10.8575 1.97909 10.9186 2.19277C11.7143 5.26354 10.0784 8.4631 7.84197 10.5319C6.7967 11.4992 5.43882 12.3029 3.98181 12.1049C2.65272 11.9263 1.45764 11.1042 0.743111 9.97892C0.619903 9.79369 0.349184 9.97224 0.459725 10.1581Z" fill="#FFD586"/>
<path d="M0.797463 10.0528C2.90376 8.97119 4.87296 7.67957 6.69238 6.1785C6.85093 6.04352 6.67214 5.75902 6.5136 5.894C4.69417 7.39506 2.71292 8.7 0.618677 9.76826C0.432954 9.86631 0.611739 10.1508 0.797463 10.0528Z" fill="#FFD586"/>
<path d="M7.37001 11.0131C7.22879 9.40179 7.33949 7.48539 6.52034 6.03382C6.4098 5.84799 6.13908 6.02654 6.23696 6.21298C7.01442 7.59009 6.90249 9.48107 7.04065 11.0288C7.06374 11.2443 7.3931 11.2286 7.37001 11.0131Z" fill="#FFD586"/>
<path d="M10.3327 6.62904C9.13216 6.48249 7.95201 6.23304 6.79167 5.86798C6.58531 5.80139 6.51197 6.12341 6.71833 6.19C7.87867 6.55506 9.05882 6.80451 10.2594 6.95106C10.4639 6.97952 10.5373 6.6575 10.3327 6.62904Z" fill="#FFD586"/>
<path d="M6.52402 6.11009C7.79444 4.54604 9.23445 3.07583 11.0024 2.08685C11.1881 1.9888 11.0093 1.70429 10.8236 1.80234C9.03094 2.80524 7.55354 4.28999 6.27168 5.88006C6.14031 6.05196 6.39265 6.28199 6.52402 6.11009Z" fill="#FFD586"/>
<path d="M6.55405 5.94303C6.30375 5.22875 6.05405 4.52719 5.80375 3.81291C5.59819 3.23665 5.44208 2.63255 5.07552 2.14041C4.95292 1.96789 4.66954 2.14705 4.79213 2.31957C5.18587 2.84863 5.34627 3.54171 5.56634 4.15551C5.78702 4.78201 6.00831 5.42123 6.22898 6.04773C6.31542 6.2602 6.62782 6.1561 6.55405 5.94303Z" fill="#FFD586"/>
<path d="M6.3579 5.82498C4.96547 5.64937 3.57119 5.43563 2.1763 5.20917C1.97117 5.168 1.89844 5.50273 2.10296 5.53119C3.49785 5.75765 4.89212 5.97139 6.28456 6.147C6.50175 6.17486 6.57448 5.84013 6.3579 5.82498Z" fill="#FFD586"/>
<path d="M4.46743 9.80115C5.36906 8.75159 6.02204 7.54828 6.40164 6.20512C6.45516 5.99871 6.13418 5.92485 6.08065 6.13125C5.72332 7.40964 5.09323 8.56091 4.22776 9.57051C4.07105 9.74362 4.32277 9.96094 4.46743 9.80115Z" fill="#FFD586"/>
<path d="M6.80455 6.13492C7.50189 6.11438 8.16531 5.91708 8.74291 5.52003C8.91474 5.39716 8.73657 5.12537 8.56413 5.23553C8.02269 5.59263 7.43466 5.77359 6.78799 5.79171C6.57326 5.81471 6.5892 6.1452 6.80455 6.13492Z" fill="#FFD586"/>
<path d="M10.1861 9.64285C10.1757 9.42676 9.84632 9.44248 9.85674 9.65857C9.86717 9.87467 10.1965 9.85895 10.1861 9.64285Z" fill="#FFD586"/>
<path d="M11.172 10.6023C11.1615 10.3862 10.8322 10.4019 10.8426 10.618C10.853 10.8341 11.1824 10.8184 11.172 10.6023Z" fill="#FFD586"/>
<path d="M12.4522 9.24165C12.4418 9.02556 12.1124 9.04128 12.1228 9.25737C12.1333 9.47347 12.4626 9.45775 12.4522 9.24165Z" fill="#FFD586"/>
<path d="M11.4725 8.4093C11.462 8.19321 11.1327 8.20893 11.1431 8.42503C11.1535 8.64112 11.4829 8.6254 11.4725 8.4093Z" fill="#FFD586"/>
<path d="M11.8855 5.91788C11.8751 5.70179 11.5458 5.71751 11.5562 5.9336C11.5666 6.1497 11.896 6.13398 11.8855 5.91788Z" fill="#FFD586"/>
<path d="M8.43985 12.1342C8.46518 12.133 8.47785 12.1324 8.50318 12.1312C8.71854 12.1209 8.70259 11.7904 8.48724 11.8007C8.4619 11.8019 8.44924 11.8025 8.4239 11.8037C8.20855 11.814 8.22449 12.1445 8.43985 12.1342Z" fill="#FFD586"/>
<path d="M9.94347 4.87665C10.3035 4.70658 10.6774 4.56133 11.0525 4.44149C11.2521 4.36826 11.1481 4.05471 10.9485 4.12794C10.574 4.26048 10.2001 4.40574 9.83947 4.5631C9.65252 4.63573 9.74447 4.9626 9.94347 4.87665Z" fill="#FFD586"/>
<path d="M2.58386 11.8149C2.96736 11.6055 3.29774 11.3476 3.60033 11.0402C3.74498 10.8804 3.50592 10.6625 3.34799 10.8101C3.07012 11.1037 2.75119 11.3355 2.39241 11.531C2.2073 11.6418 2.39814 11.913 2.58386 11.8149Z" fill="#FFD586"/>
</svg>
