<svg width="68" height="63" viewBox="0 0 68 63" fill="none" xmlns="http://www.w3.org/2000/svg">
<path d="M4.92299 12.944C-1.10544 24.6845 -1.51444 38.0549 6.85633 48.7289C14.8758 58.9225 28.1121 63.9756 40.8609 61.2881C47.5674 59.9036 53.986 56.6043 58.9954 51.9409C63.2306 48.0004 67.4063 42.3431 67.6553 36.2969C68.0982 22.7956 54.1928 12.3268 43.7027 6.49618C36.8771 2.71703 29.0277 0.517783 21.1447 1.04399C13.5707 1.56537 8.43432 6.50325 4.92299 12.944C4.43648 13.8521 5.73136 14.6848 6.28981 13.8231C9.22156 8.43393 13.6089 3.47222 20.0151 2.70848C26.5525 1.97823 33.3567 3.35267 39.3232 6.01975C50.0967 10.8626 62.5675 19.8492 65.645 31.85C68.9003 44.6773 54.4725 55.6963 43.7041 58.9452C32.119 62.432 19.6827 59.3686 11.1048 50.9015C6.6953 46.5396 3.2546 40.9185 2.28919 34.7018C1.23904 27.5149 3.07466 20.2 6.34904 13.8103C6.71708 12.9278 5.35026 12.0488 4.92299 12.944Z" fill="#FFD586"/>
<path d="M16.156 2.058C11.2142 6.45971 8.15563 12.9882 8.21134 19.5864C8.25019 26.6824 12.4906 32.5635 17.6618 37.0083C29.5784 47.1647 47.5666 52.9846 62.4475 46.3777C63.4165 45.9834 62.6716 44.5378 61.7154 44.9912C47.9091 51.1192 31.6051 45.9245 20.1456 37.0287C14.7883 32.8711 9.95547 27.1178 9.75162 20.1191C9.55629 13.7363 12.4879 7.48235 17.2181 3.24983C17.9924 2.52686 16.9429 1.39407 16.156 2.058Z" fill="#FFD586"/>
<path d="M16.9135 3.56263C23.6339 12.6156 31.2343 20.861 39.702 28.2398C40.4595 28.8795 41.6569 27.8182 40.8994 27.1784C32.4317 19.7996 24.7593 11.508 18.1109 2.50131C17.5057 1.70515 16.3084 2.76647 16.9135 3.56263Z" fill="#FFD586"/>
<path d="M17.5178 35.1861C24.9774 33.2685 34.0663 32.2969 40.2478 27.319C41.0347 26.655 39.9852 25.5222 39.1856 26.1271C33.3214 30.8513 24.351 31.7974 17.1876 33.6511C16.1932 33.9273 16.5234 35.4623 17.5178 35.1861Z" fill="#FFD586"/>
<path d="M40.419 45.6918C40.173 39.9377 40.4262 34.1996 41.238 28.4645C41.3903 27.4432 39.8204 27.3493 39.6682 28.3706C38.8564 34.1057 38.6031 39.8438 38.8492 45.5979C38.8747 46.5808 40.4445 46.6747 40.419 45.6918Z" fill="#FFD586"/>
<path d="M39.8924 27.3956C48.2286 32.1463 56.2561 37.7667 62.2781 45.3022C62.8833 46.0984 64.0807 45.0371 63.4755 44.2409C57.3688 36.6001 49.244 30.8153 40.7766 26.0311C39.8668 25.5478 38.9826 26.9122 39.8924 27.3956Z" fill="#FFD586"/>
<path d="M40.7005 27.4066C43.8612 25.6748 46.9626 23.9558 50.1232 22.224C52.6703 20.8098 55.3867 19.6062 57.4133 17.5011C58.1284 16.791 57.0662 15.5991 56.3511 16.3093C54.1722 18.5708 51.0412 19.8638 48.329 21.3753C45.5577 22.8996 42.727 24.4367 39.9557 25.9611C39.0248 26.5325 39.757 27.919 40.7005 27.4066Z" fill="#FFD586"/>
<path d="M41.1024 26.3933C40.8436 19.7154 40.7625 12.9991 40.7406 6.27003C40.7743 5.2743 39.1453 5.19317 39.1707 6.17612C39.1926 12.9052 39.2737 19.6215 39.5326 26.2994C39.5708 27.3414 41.1998 27.4225 41.1024 26.3933Z" fill="#FFD586"/>
<path d="M20.9521 20.6072C26.5844 24.026 32.7455 26.1568 39.3507 26.8946C40.362 26.9854 40.4591 25.42 39.4478 25.3292C33.1642 24.6457 27.2655 22.5817 21.849 19.3018C20.9138 18.7004 20.0888 20.0521 20.9521 20.6072Z" fill="#FFD586"/>
<path d="M39.994 28.7328C40.6333 31.9927 42.0765 34.9557 44.3913 37.36C45.1023 38.0716 46.2404 37.0231 45.5887 36.2987C43.4897 34.0331 42.1819 31.4116 41.5935 28.3879C41.3183 27.397 39.7781 27.7291 39.994 28.7328Z" fill="#FFD586"/>
<path d="M26.1468 47.3487C27.1539 47.1316 26.8236 45.5966 25.8166 45.8137C24.8096 46.0309 25.1398 47.5659 26.1468 47.3487Z" fill="#FFD586"/>
<path d="M22.4069 52.7268C23.4139 52.5097 23.0837 50.9746 22.0767 51.1918C21.0696 51.409 21.3998 52.944 22.4069 52.7268Z" fill="#FFD586"/>
<path d="M29.7954 57.6819C30.8024 57.4647 30.4722 55.9297 29.4651 56.1469C28.4581 56.3641 28.7883 57.8991 29.7954 57.6819Z" fill="#FFD586"/>
<path d="M32.9429 52.4316C33.95 52.2144 33.6197 50.6794 32.6127 50.8966C31.6057 51.1137 31.9359 52.6488 32.9429 52.4316Z" fill="#FFD586"/>
<path d="M44.9684 52.4329C45.9755 52.2157 45.6453 50.6807 44.6382 50.8979C43.6312 51.1151 43.9614 52.6501 44.9684 52.4329Z" fill="#FFD586"/>
<path d="M13.0839 41.0845C13.1093 41.2025 13.122 41.2616 13.1474 41.3797C13.3634 42.3833 14.9035 42.0512 14.6876 41.0475C14.6622 40.9294 14.6495 40.8704 14.6241 40.7523C14.4082 39.7487 12.868 40.0808 13.0839 41.0845Z" fill="#FFD586"/>
<path d="M48.3482 42.4992C49.4274 44.058 50.4008 45.7014 51.2557 47.3704C51.7551 48.2511 53.1471 47.5185 52.6477 46.6377C51.7336 44.9815 50.7602 43.3381 49.7403 41.7665C49.2536 40.9448 47.7896 41.6312 48.3482 42.4992Z" fill="#FFD586"/>
<path d="M10.0259 13.3262C11.3082 14.9648 12.7766 16.3161 14.4566 17.4982C15.3199 18.0534 16.1575 16.7608 15.3408 16.1338C13.7455 15.0569 12.4082 13.7391 11.2106 12.2058C10.5462 11.4224 9.42075 12.53 10.0259 13.3262Z" fill="#FFD586"/>
</svg>
