<svg width="14" height="15" viewBox="0 0 14 15" fill="none" xmlns="http://www.w3.org/2000/svg">
<path d="M2.32942 12.859C4.5549 14.511 7.31097 15.0547 9.80976 13.6869C12.197 12.3753 13.6983 9.80645 13.5791 7.07287C13.5225 5.63587 13.0592 4.19279 12.265 2.99485C11.594 1.98214 10.5653 0.922796 9.32115 0.66366C6.53913 0.108449 3.89285 2.63002 2.32475 4.60324C1.30747 5.88765 0.58238 7.43841 0.4208 9.08968C0.268821 10.6768 1.11555 11.9104 2.32942 12.859C2.50085 12.991 2.71783 12.7513 2.55846 12.606C1.54257 11.8136 0.665201 10.7343 0.726876 9.38085C0.799992 8.00136 1.31832 6.63884 2.0757 5.49424C3.44888 3.4284 5.73884 1.15317 8.33082 0.927523C11.1002 0.693411 12.8878 4.06083 13.1913 6.40338C13.516 8.92329 12.4544 11.3947 10.4057 12.8812C9.35065 13.6451 8.06795 14.165 6.74682 14.1516C5.22179 14.1225 3.76927 13.491 2.55785 12.5933C2.38765 12.4868 2.15861 12.7398 2.32942 12.859Z" fill="#FFD586"/>
<path d="M0.459634 10.1581C1.20195 11.333 2.44954 12.1908 3.81848 12.4058C5.28999 12.6413 6.654 11.9646 7.7524 11.0458C10.2657 8.92557 12.0889 5.39854 11.2309 2.08867C11.1825 1.87439 10.8574 1.97909 10.9185 2.19277C11.7142 5.26354 10.0783 8.4631 7.84188 10.5319C6.79661 11.4992 5.43872 12.3029 3.98172 12.1049C2.65263 11.9263 1.45755 11.1042 0.74302 9.97892C0.619811 9.79369 0.349093 9.97224 0.459634 10.1581Z" fill="#FFD586"/>
<path d="M0.797371 10.0528C2.90367 8.97119 4.87286 7.67957 6.69229 6.1785C6.85084 6.04352 6.67205 5.75902 6.51351 5.894C4.69408 7.39506 2.71283 8.7 0.618586 9.76826C0.432862 9.86631 0.611647 10.1508 0.797371 10.0528Z" fill="#FFD586"/>
<path d="M7.36992 11.0131C7.2287 9.40179 7.3394 7.48539 6.52025 6.03382C6.40971 5.84799 6.13899 6.02654 6.23686 6.21298C7.01433 7.59009 6.9024 9.48107 7.04056 11.0288C7.06365 11.2443 7.39301 11.2286 7.36992 11.0131Z" fill="#FFD586"/>
<path d="M10.3326 6.62904C9.13207 6.48249 7.95192 6.23304 6.79158 5.86798C6.58522 5.80139 6.51188 6.12341 6.71824 6.19C7.87857 6.55506 9.05872 6.80451 10.2593 6.95106C10.4638 6.97952 10.5372 6.6575 10.3326 6.62904Z" fill="#FFD586"/>
<path d="M6.52393 6.11009C7.79435 4.54604 9.23436 3.07583 11.0023 2.08685C11.188 1.9888 11.0092 1.70429 10.8235 1.80234C9.03085 2.80524 7.55345 4.28999 6.27159 5.88006C6.14022 6.05196 6.39256 6.28199 6.52393 6.11009Z" fill="#FFD586"/>
<path d="M6.55396 5.94303C6.30366 5.22875 6.05396 4.52719 5.80366 3.81291C5.5981 3.23665 5.44199 2.63255 5.07543 2.14041C4.95283 1.96789 4.66945 2.14705 4.79204 2.31957C5.18578 2.84863 5.34618 3.54171 5.56625 4.15551C5.78692 4.78201 6.00821 5.42123 6.22889 6.04773C6.31532 6.2602 6.62773 6.1561 6.55396 5.94303Z" fill="#FFD586"/>
<path d="M6.35781 5.82498C4.96538 5.64937 3.5711 5.43563 2.17621 5.20917C1.97107 5.168 1.89834 5.50273 2.10287 5.53119C3.49776 5.75765 4.89203 5.97139 6.28447 6.147C6.50166 6.17486 6.57439 5.84013 6.35781 5.82498Z" fill="#FFD586"/>
<path d="M4.46734 9.80115C5.36897 8.75159 6.02195 7.54828 6.40154 6.20512C6.45507 5.99871 6.13409 5.92485 6.08056 6.13125C5.72323 7.40964 5.09314 8.56091 4.22767 9.57051C4.07096 9.74362 4.32268 9.96094 4.46734 9.80115Z" fill="#FFD586"/>
<path d="M6.80446 6.13492C7.5018 6.11438 8.16522 5.91708 8.74282 5.52003C8.91465 5.39716 8.73648 5.12537 8.56403 5.23553C8.0226 5.59263 7.43457 5.77359 6.7879 5.79171C6.57316 5.81471 6.58911 6.1452 6.80446 6.13492Z" fill="#FFD586"/>
<path d="M10.186 9.64285C10.1756 9.42676 9.84623 9.44248 9.85665 9.65857C9.86708 9.87467 10.1964 9.85895 10.186 9.64285Z" fill="#FFD586"/>
<path d="M11.1719 10.6023C11.1614 10.3862 10.8321 10.4019 10.8425 10.618C10.8529 10.8341 11.1823 10.8184 11.1719 10.6023Z" fill="#FFD586"/>
<path d="M12.4521 9.24165C12.4417 9.02556 12.1123 9.04128 12.1227 9.25737C12.1332 9.47347 12.4625 9.45775 12.4521 9.24165Z" fill="#FFD586"/>
<path d="M11.4724 8.4093C11.462 8.19321 11.1326 8.20893 11.143 8.42503C11.1534 8.64112 11.4828 8.6254 11.4724 8.4093Z" fill="#FFD586"/>
<path d="M11.8855 5.91788C11.875 5.70179 11.5457 5.71751 11.5561 5.9336C11.5665 6.1497 11.8959 6.13398 11.8855 5.91788Z" fill="#FFD586"/>
<path d="M8.43975 12.1342C8.46509 12.133 8.47776 12.1324 8.50309 12.1312C8.71844 12.1209 8.7025 11.7904 8.48715 11.8007C8.46181 11.8019 8.44914 11.8025 8.42381 11.8037C8.20846 11.814 8.2244 12.1445 8.43975 12.1342Z" fill="#FFD586"/>
<path d="M9.94338 4.87665C10.3034 4.70658 10.6773 4.56133 11.0524 4.44149C11.252 4.36826 11.148 4.05471 10.9484 4.12794C10.5739 4.26048 10.2 4.40574 9.83938 4.5631C9.65243 4.63573 9.74438 4.9626 9.94338 4.87665Z" fill="#FFD586"/>
<path d="M2.58377 11.8149C2.96727 11.6055 3.29765 11.3476 3.60024 11.0402C3.74489 10.8804 3.50583 10.6625 3.3479 10.8101C3.07003 11.1037 2.75109 11.3355 2.39232 11.531C2.2072 11.6418 2.39804 11.913 2.58377 11.8149Z" fill="#FFD586"/>
</svg>
