<svg width="118" height="108" viewBox="0 0 118 108" fill="none" xmlns="http://www.w3.org/2000/svg">
<path d="M8.88628 20.8939C-2.0132 41.2105 -3.14888 64.5511 11.1356 83.4584C24.8217 101.516 47.7815 110.759 70.1339 106.466C81.8915 104.26 93.2065 98.6991 102.103 90.7116C109.625 83.9625 117.096 74.2125 117.722 63.6599C118.921 40.0919 94.9629 21.3684 76.824 10.8537C65.0211 4.03781 51.3803 -0.0508407 37.5949 0.619874C24.3493 1.29187 15.2223 9.75479 8.88628 20.8939C8.0079 22.4646 10.2434 23.9599 11.2459 22.4723C16.5365 13.1518 24.356 4.62369 35.5695 3.49156C47.011 2.42206 58.8522 5.03712 69.1895 9.88357C87.8545 18.6818 109.353 34.7713 114.351 55.8294C119.632 78.3368 94.0849 97.1284 75.1738 102.464C54.8289 108.189 33.2035 102.446 18.4878 87.3872C10.9233 79.6294 5.09075 69.7029 3.60038 58.8141C1.99259 46.2281 5.42927 33.5093 11.3498 22.4519C12.0204 20.9221 9.66078 19.3437 8.88628 20.8939Z" fill="#FFD586"/>
<path d="M28.8493 2.2338C20.0791 9.76633 14.5312 21.0729 14.4206 32.5994C14.2648 44.995 21.4861 55.4008 30.3783 63.3273C50.8724 81.4423 82.108 92.1745 108.308 81.1034C110.013 80.4453 108.757 77.8969 107.073 78.6585C82.7651 88.927 54.4514 79.3401 34.716 63.4411C25.4896 56.0105 17.2297 45.8091 17.0941 33.5784C16.9541 22.4238 22.2717 11.5927 30.6671 4.34897C32.0422 3.11059 30.2448 1.09894 28.8493 2.2338Z" fill="#FFD586"/>
<path d="M30.1251 4.88573C41.578 20.9098 54.5935 35.5511 69.1511 48.7061C70.454 49.8474 72.5788 48.0313 71.2759 46.89C56.7183 33.7351 43.5786 19.0107 32.25 3.0697C31.218 1.66002 29.0932 3.47606 30.1251 4.88573Z" fill="#FFD586"/>
<path d="M30.1841 60.1399C43.274 57.0256 59.1796 55.6149 70.1334 47.1149C71.5288 45.9801 69.7314 43.9684 68.3156 44.9998C57.9242 53.0665 42.2262 54.4363 29.6557 57.4483C27.9103 57.8994 28.4387 60.591 30.1841 60.1399Z" fill="#FFD586"/>
<path d="M69.8535 79.2113C69.6051 69.1532 70.2283 59.1386 71.8269 49.147C72.125 47.368 69.386 47.1546 69.0879 48.9336C67.4893 58.9251 66.8661 68.9397 67.1145 78.9978C67.1281 80.7154 69.8671 80.9289 69.8535 79.2113Z" fill="#FFD586"/>
<path d="M69.5102 47.2376C83.921 55.7981 97.7651 65.8679 108.046 79.2196C109.078 80.6293 111.203 78.8132 110.171 77.4036C99.7454 63.8653 85.7365 53.5054 71.0975 44.8823C69.5237 44.0093 67.9363 46.3647 69.5102 47.2376Z" fill="#FFD586"/>
<path d="M70.9214 47.2824C76.4965 44.3571 81.9677 41.4522 87.5428 38.5269C92.0363 36.1371 96.8189 34.1205 100.425 30.5076C101.696 29.2896 99.8785 27.1745 98.6072 28.3924C94.7302 32.2737 89.2205 34.4335 84.4358 36.9881C79.5471 39.5633 74.5546 42.1588 69.6659 44.734C68.0221 45.7027 69.2573 48.1476 70.9214 47.2824Z" fill="#FFD586"/>
<path d="M71.6553 45.5251C71.4136 33.8529 71.4836 22.1194 71.6574 10.3654C71.7477 8.62726 68.9048 8.43423 68.9184 10.1519C68.7446 21.9059 68.6746 33.6394 68.9163 45.3116C68.9502 47.1328 71.793 47.3259 71.6553 45.5251Z" fill="#FFD586"/>
<path d="M36.642 34.784C46.372 40.9327 57.0661 44.8488 68.5798 46.3455C70.3434 46.536 70.5624 43.8049 68.7988 43.6144C57.8451 42.2224 47.6071 38.4316 38.2497 32.5321C36.6352 31.4521 35.1517 33.7871 36.642 34.784Z" fill="#FFD586"/>
<path d="M69.6456 49.5764C70.6595 55.2905 73.087 60.5112 77.0544 64.7838C78.2737 66.049 80.2946 64.2534 79.1792 62.9677C75.5843 58.9444 73.3827 54.3244 72.4501 49.0244C72.0008 47.285 69.3002 47.8166 69.6456 49.5764Z" fill="#FFD586"/>
<path d="M44.8728 81.6557C46.6386 81.3081 46.1102 78.6165 44.3444 78.9641C42.5786 79.3117 43.107 82.0033 44.8728 81.6557Z" fill="#FFD586"/>
<path d="M38.171 90.9315C39.9368 90.5839 39.4084 87.8923 37.6426 88.2399C35.8768 88.5875 36.4052 91.279 38.171 90.9315Z" fill="#FFD586"/>
<path d="M50.9199 99.8191C52.6857 99.4715 52.1573 96.78 50.3916 97.1275C48.6258 97.4751 49.1542 100.167 50.9199 99.8191Z" fill="#FFD586"/>
<path d="M56.5831 90.7478C58.3489 90.4002 57.8205 87.7086 56.0547 88.0562C54.2889 88.4038 54.8173 91.0953 56.5831 90.7478Z" fill="#FFD586"/>
<path d="M77.5874 91.129C79.3532 90.7814 78.8248 88.0899 77.059 88.4374C75.2932 88.785 75.8216 91.4766 77.5874 91.129Z" fill="#FFD586"/>
<path d="M22.2539 70.3026C22.2946 70.5096 22.3149 70.6131 22.3555 70.8202C22.701 72.58 25.4016 72.0484 25.0562 70.2886C25.0155 70.0815 24.9952 69.978 24.9545 69.771C24.6091 68.0111 21.9084 68.5427 22.2539 70.3026Z" fill="#FFD586"/>
<path d="M83.8037 73.8847C85.6395 76.6414 87.2879 79.5426 88.7285 82.4846C89.573 84.0387 92.0275 82.8029 91.183 81.2488C89.6385 78.3272 87.9901 75.4261 86.2582 72.6489C85.434 71.1983 82.8553 72.3511 83.8037 73.8847Z" fill="#FFD586"/>
<path d="M17.7873 21.7222C19.9753 24.6246 22.4976 27.0312 25.3947 29.149C26.885 30.1458 28.3888 27.9144 26.9821 26.7936C24.2295 24.8624 21.9353 22.5185 19.8918 19.8027C18.756 18.4134 16.7553 20.3125 17.7873 21.7222Z" fill="#FFD586"/>
</svg>
