<svg width="48" height="48" viewBox="0 0 48 48" fill="none" xmlns="http://www.w3.org/2000/svg">
<path d="M38.575 24C37.5208 24 36.5097 23.5812 35.7643 22.8357C35.0188 22.0903 34.6 21.0792 34.6 20.025C34.6 18.9708 35.0188 17.9597 35.7643 17.2142C36.5097 16.4688 37.5208 16.05 38.575 16.05C39.6292 16.05 40.6403 16.4688 41.3857 17.2142C42.1312 17.9597 42.55 18.9708 42.55 20.025C42.55 21.0792 42.1312 22.0903 41.3857 22.8357C40.6403 23.5812 39.6292 24 38.575 24ZM30.625 13.4C29.5708 13.4 28.5597 12.9812 27.8143 12.2357C27.0688 11.4903 26.65 10.4792 26.65 9.42499C26.65 8.37076 27.0688 7.3597 27.8143 6.61424C28.5597 5.86879 29.5708 5.44999 30.625 5.44999C31.6792 5.44999 32.6903 5.86879 33.4358 6.61424C34.1812 7.3597 34.6 8.37076 34.6 9.42499C34.6 10.4792 34.1812 11.4903 33.4358 12.2357C32.6903 12.9812 31.6792 13.4 30.625 13.4ZM17.375 13.4C16.3208 13.4 15.3097 12.9812 14.5643 12.2357C13.8188 11.4903 13.4 10.4792 13.4 9.42499C13.4 8.37076 13.8188 7.3597 14.5643 6.61424C15.3097 5.86879 16.3208 5.44999 17.375 5.44999C18.4292 5.44999 19.4403 5.86879 20.1858 6.61424C20.9312 7.3597 21.35 8.37076 21.35 9.42499C21.35 10.4792 20.9312 11.4903 20.1858 12.2357C19.4403 12.9812 18.4292 13.4 17.375 13.4ZM9.425 24C8.37077 24 7.35971 23.5812 6.61425 22.8357C5.86879 22.0903 5.45 21.0792 5.45 20.025C5.45 18.9708 5.86879 17.9597 6.61425 17.2142C7.35971 16.4688 8.37077 16.05 9.425 16.05C10.4792 16.05 11.4903 16.4688 12.2358 17.2142C12.9812 17.9597 13.4 18.9708 13.4 20.025C13.4 21.0792 12.9812 22.0903 12.2358 22.8357C11.4903 23.5812 10.4792 24 9.425 24ZM24 0.149994C17.6746 0.149994 11.6082 2.66275 7.1355 7.1355C2.66276 11.6082 0.150002 17.6746 0.150002 24C0.150002 30.3254 2.66276 36.3917 7.1355 40.8645C11.6082 45.3372 17.6746 47.85 24 47.85C25.0542 47.85 26.0653 47.4312 26.8108 46.6857C27.5562 45.9403 27.975 44.9292 27.975 43.875C27.975 42.8415 27.5775 41.914 26.9415 41.225C26.332 40.5095 25.9345 39.582 25.9345 38.575C25.9345 37.5208 26.3533 36.5097 27.0988 35.7642C27.8442 35.0188 28.8553 34.6 29.9095 34.6H34.6C38.1141 34.6 41.4843 33.204 43.9692 30.7192C46.454 28.2343 47.85 24.8641 47.85 21.35C47.85 9.63699 37.1705 0.149994 24 0.149994Z" fill="#EF6292"/>
</svg>
