<svg width="563" height="469" viewBox="0 0 563 469" fill="none" xmlns="http://www.w3.org/2000/svg">
<path d="M504.182 99.321C505.56 91.3495 507.69 83.5961 510.633 76.0841C511.072 76.3915 511.451 76.6757 511.891 76.9831C504.69 82.5183 497.596 87.9552 491.953 95.0615C491.301 95.8568 489.982 94.9345 490.658 94.0784C496.408 86.8738 503.609 81.3386 510.894 75.7659C511.491 75.2977 512.431 75.9358 512.152 76.665C509.255 84.0555 507.111 91.6641 505.803 99.4533C505.613 100.495 504.077 100.325 504.182 99.321Z" fill="#FFEDCC"/>
<path d="M510.911 114.503C521.746 101.65 537.98 94.3459 554.802 94.7896C554.616 95.2757 554.43 95.7619 554.244 96.248C547.116 89.7598 533.692 91.1733 524.925 92.9747C515.616 94.9173 506.933 99.0494 499.471 104.903C498.659 105.568 497.625 104.266 498.497 103.625C506.388 97.3782 515.697 93.0674 525.622 91.1516C534.632 89.4432 547.879 88.3103 555.167 94.929C555.742 95.4277 555.431 96.4232 554.609 96.3874C538.403 95.9706 522.612 103.027 512.206 115.486C511.553 116.281 510.258 115.298 510.911 114.503Z" fill="#FFEDCC"/>
<path d="M495.198 89.1276C494.795 77.619 491.273 66.7984 483.03 58.4907C483.534 58.2655 483.954 58.0778 484.458 57.8526C486.419 70.9324 484.687 84.2015 479.239 96.2586C478.806 97.2077 477.288 96.6268 477.72 95.6777C483.014 83.8404 484.752 70.9216 482.843 58.0707C482.696 57.1788 483.719 56.8732 484.271 57.4326C492.65 65.9316 496.359 77.1722 496.753 88.8864C496.792 89.8765 495.214 90.1786 495.198 89.1276Z" fill="#FFEDCC"/>
<path d="M519.643 92.7654C526.477 80.5421 537.237 69.8898 549.17 62.5424C549.395 63.0465 549.582 63.4665 549.807 63.9705C542.15 64.8729 534.662 66.6065 527.832 70.2632C521.146 73.9056 515.546 79.078 510.129 84.3201C509.378 85.0082 508.382 83.791 509.155 83.0421C514.619 77.6785 520.387 72.431 527.157 68.7511C534.094 64.9961 541.727 63.2482 549.529 62.3315C550.253 62.2601 550.908 63.2771 550.166 63.7596C538.341 71.0087 527.711 81.5019 520.901 93.6645C520.445 94.6743 519.149 93.6912 519.643 92.7654Z" fill="#FFEDCC"/>
<path d="M516.106 76.1575C517.262 63.8517 514.515 49.9141 507.51 39.6421C507.968 39.5385 508.402 39.4956 508.92 39.4152C505.449 51.9496 502.151 64.7593 495.46 76.0622C494.906 76.9648 493.611 75.9818 494.165 75.0792C500.809 63.8978 504 51.1864 507.425 38.7735C507.573 38.2033 508.465 38.0568 508.834 38.5465C516.026 49.2385 518.9 63.573 517.727 76.2898C517.598 77.355 516.001 77.162 516.106 76.1575Z" fill="#FFEDCC"/>
<path d="M525.747 68.978C529.038 60.5544 534.658 53.5089 540.156 46.4169C540.488 46.8227 540.821 47.2284 541.153 47.6341C532.243 50.356 524.377 55.0797 517.87 61.7159C517.156 62.488 516.122 61.1868 516.896 60.4379C523.488 53.7642 531.484 48.8814 540.455 46.1828C541.164 45.9665 541.997 46.7029 541.451 47.4C536.061 54.3937 530.511 61.2569 527.265 69.5589C526.894 70.5312 525.375 69.9503 525.747 68.978Z" fill="#FFEDCC"/>
<path d="M496.899 97.7891C495.72 98.8704 494.699 100.082 493.777 101.401C493.162 102.281 491.866 101.297 492.481 100.418C493.45 98.9775 494.639 97.6907 495.865 96.4879C496.676 95.823 497.65 97.101 496.899 97.7891Z" fill="#FFEDCC"/>
<path d="M470.125 97.5095C492.107 94.8416 514.755 112.281 521.562 132.718C525.689 145.233 523.181 158.344 519.452 170.641C517.056 178.362 513.945 185.949 510.334 193.206C507.109 199.635 503.693 206.2 499.224 211.874C495.301 216.852 490.148 221.22 485.205 225.041C480.284 228.802 475.035 231.6 468.84 232.505C455.557 234.46 442.116 231.548 430.574 224.765C420.897 219.113 413.178 211.075 409.801 200.24C406.231 188.635 407.828 175.175 411.17 163.705C413.584 155.573 417.877 147.811 421.786 140.32C425.51 133.316 429.598 126.451 434.482 120.238C443.503 108.851 455.577 99.6772 470.125 97.5095C471.162 97.3487 471.379 98.9645 470.427 99.0878C443.175 103.153 428.32 129.793 417.595 152.37C407.913 172.769 403.988 200.873 422.828 217.343C432.584 225.882 445.819 231.153 458.76 231.366C464.911 231.489 471.415 231.052 477.014 228.247C482.781 225.368 487.607 220.945 492.326 216.619C502.252 207.599 508.384 194.48 513.467 182.284C518.597 169.966 523.451 155.453 521.943 141.919C519.351 118.288 494.687 96.1071 470.366 99.0645C469.391 99.2486 469.112 97.6096 470.125 97.5095Z" fill="#FFEDCC"/>
<path d="M474.689 223.039C475.354 221.482 475.921 219.818 476.221 218.122C476.355 217.407 476.513 216.632 476.502 215.931C476.49 214.324 476.153 213.568 474.527 213.086C471.359 212.083 467.491 214.365 464.785 215.977C463.876 216.535 463.261 215.046 464.11 214.465C467.007 212.717 473.296 209.202 476.575 211.918C479.792 214.612 477.515 220.567 476.231 223.559C475.775 224.569 474.256 223.988 474.689 223.039Z" fill="#FFEDCC"/>
<path d="M450.531 207.181C451.25 204.391 452.964 196.27 447.483 197.308C444.64 197.823 441.893 199.907 439.734 201.728C438.922 202.393 437.949 201.115 438.76 200.45C441.469 198.282 446.972 193.909 450.689 196.027C454.405 198.145 452.931 204.547 452.11 207.786C451.739 208.758 450.22 208.177 450.531 207.181Z" fill="#FFEDCC"/>
<path d="M428.923 191.393C429.642 188.603 431.356 180.482 425.875 181.52C423.032 182.035 420.285 184.119 418.126 185.94C417.314 186.605 416.341 185.327 417.152 184.662C419.862 182.494 425.365 178.121 429.081 180.239C432.797 182.357 431.323 188.759 430.503 191.998C430.191 192.993 428.673 192.412 428.923 191.393Z" fill="#FFEDCC"/>
<path d="M471.676 198.69C472.341 197.134 472.908 195.47 473.208 193.773C473.343 193.058 473.5 192.283 473.489 191.582C473.477 189.975 473.14 189.219 471.514 188.737C468.346 187.734 464.478 190.016 461.772 191.628C460.863 192.186 460.248 190.697 461.097 190.116C463.994 188.368 470.283 184.853 473.562 187.57C476.78 190.263 474.502 196.218 473.218 199.21C472.762 200.22 471.243 199.639 471.676 198.69Z" fill="#FFEDCC"/>
<path d="M496.244 211.292C496.909 209.735 497.476 208.071 497.776 206.375C497.91 205.66 498.068 204.884 498.057 204.183C498.045 202.577 497.708 201.821 496.082 201.338C492.913 200.335 489.046 202.617 486.34 204.23C485.431 204.787 484.816 203.298 485.665 202.717C488.562 200.97 494.851 197.454 498.13 200.171C501.347 202.864 499.069 208.82 497.786 211.812C497.391 212.845 495.872 212.264 496.244 211.292Z" fill="#FFEDCC"/>
<path d="M447.518 182.833C448.237 180.043 449.951 171.921 444.47 172.959C441.627 173.474 438.88 175.558 436.721 177.379C435.909 178.044 434.936 176.766 435.747 176.101C438.457 173.933 443.96 169.56 447.676 171.678C451.392 173.796 449.919 180.198 449.098 183.437C448.726 184.409 447.207 183.828 447.518 182.833Z" fill="#FFEDCC"/>
<path d="M425.91 167.044C426.629 164.254 428.343 156.133 422.862 157.171C420.019 157.686 417.272 159.77 415.113 161.591C414.301 162.256 413.328 160.978 414.139 160.313C416.849 158.145 422.352 153.772 426.068 155.89C429.784 158.008 428.311 164.41 427.49 167.649C427.118 168.621 425.66 168.063 425.91 167.044Z" fill="#FFEDCC"/>
<path d="M426.612 146.276C427.345 143.63 428.606 138.331 425.847 136.44C424.968 135.825 425.951 134.529 426.83 135.144C430.286 137.58 429.021 143.436 428.13 146.857C427.819 147.852 426.3 147.271 426.612 146.276Z" fill="#FFEDCC"/>
<path d="M429.905 213.224C430.624 210.434 432.337 202.312 426.857 203.351C424.013 203.865 421.266 205.949 419.107 207.77C418.296 208.435 417.322 207.157 418.134 206.492C420.843 204.325 426.346 199.951 430.063 202.069C433.779 204.187 432.305 210.589 431.484 213.828C431.173 214.824 429.654 214.243 429.905 213.224Z" fill="#FFEDCC"/>
<path d="M493.78 191.332C494.445 189.776 495.012 188.112 495.313 186.416C495.447 185.701 495.604 184.925 495.594 184.224C495.582 182.617 495.244 181.861 493.618 181.379C490.45 180.376 486.583 182.658 483.877 184.27C482.967 184.828 482.353 183.339 483.202 182.758C486.099 181.01 492.388 177.495 495.666 180.212C498.884 182.905 496.606 188.861 495.322 191.853C494.866 192.862 493.348 192.282 493.78 191.332Z" fill="#FFEDCC"/>
<path d="M469.562 175.451C470.281 172.661 471.994 164.54 466.513 165.578C463.67 166.093 460.923 168.177 458.764 169.998C457.953 170.663 456.979 169.385 457.791 168.72C460.5 166.552 466.003 162.179 469.72 164.297C473.436 166.415 471.962 172.817 471.141 176.056C470.83 177.051 469.311 176.47 469.562 175.451Z" fill="#FFEDCC"/>
<path d="M448.014 159.687C448.733 156.897 450.447 148.775 444.966 149.813C442.123 150.328 439.376 152.412 437.217 154.233C436.406 154.898 435.432 153.62 436.244 152.955C438.953 150.787 444.456 146.414 448.172 148.532C451.889 150.65 450.415 157.052 449.594 160.291C449.222 161.263 447.703 160.682 448.014 159.687Z" fill="#FFEDCC"/>
<path d="M490.182 165.784C490.847 164.227 491.413 162.563 491.714 160.867C491.848 160.152 492.006 159.377 491.995 158.676C491.983 157.069 491.645 156.313 490.019 155.831C486.851 154.828 482.984 157.11 480.278 158.722C479.368 159.28 478.754 157.791 479.603 157.21C482.5 155.462 488.789 151.947 492.067 154.664C495.285 157.357 493.007 163.312 491.724 166.304C491.268 167.314 489.749 166.733 490.182 165.784Z" fill="#FFEDCC"/>
<path d="M466.024 149.926C466.743 147.136 468.456 139.015 462.976 140.053C460.132 140.568 457.385 142.652 455.226 144.473C454.415 145.138 453.441 143.86 454.253 143.195C456.962 141.027 462.465 136.654 466.182 138.772C469.898 140.89 468.424 147.292 467.603 150.531C467.255 151.442 465.736 150.861 466.024 149.926Z" fill="#FFEDCC"/>
<path d="M507.983 133.445C508.648 131.888 509.215 130.224 509.515 128.528C509.65 127.813 509.807 127.037 509.796 126.337C509.784 124.73 509.447 123.974 507.821 123.491C504.653 122.488 500.785 124.771 498.079 126.383C497.17 126.94 496.555 125.452 497.404 124.871C500.301 123.123 506.59 119.607 509.869 122.324C513.087 125.018 510.809 130.973 509.525 133.965C509.13 134.998 507.611 134.417 507.983 133.445Z" fill="#FFEDCC"/>
<path d="M483.825 117.587C484.544 114.797 486.258 106.675 480.777 107.714C477.934 108.228 475.187 110.312 473.028 112.134C472.216 112.798 471.243 111.52 472.054 110.856C474.764 108.688 480.267 104.314 483.983 106.432C487.699 108.55 486.226 114.952 485.405 118.191C485.117 119.126 483.598 118.545 483.825 117.587Z" fill="#FFEDCC"/>
<path d="M444.416 134.138C445.135 131.348 446.848 123.227 441.368 124.265C438.524 124.78 435.777 126.864 433.618 128.685C432.807 129.35 431.833 128.072 432.645 127.407C435.354 125.239 440.857 120.866 444.574 122.984C448.29 125.102 446.816 131.504 445.995 134.743C445.684 135.738 444.189 135.096 444.416 134.138Z" fill="#FFEDCC"/>
<path d="M512.276 179.39C512.995 176.6 514.709 168.478 509.228 169.517C506.385 170.031 503.638 172.115 501.479 173.937C500.667 174.601 499.694 173.323 500.505 172.659C503.215 170.491 508.717 166.117 512.434 168.235C516.15 170.353 514.676 176.755 513.856 179.994C513.544 180.99 512.026 180.409 512.276 179.39Z" fill="#FFEDCC"/>
<path d="M511.669 158.4C512.334 156.843 512.901 155.179 513.202 153.483C513.336 152.768 513.493 151.992 513.483 151.291C513.471 149.685 513.133 148.929 511.507 148.446C508.339 147.443 504.472 149.725 501.766 151.338C500.856 151.895 500.242 150.406 501.091 149.825C503.988 148.078 510.277 144.562 513.555 147.279C516.773 149.972 514.495 155.928 513.211 158.92C512.756 159.93 511.237 159.349 511.669 158.4Z" fill="#FFEDCC"/>
<path d="M487.512 142.542C488.23 139.752 489.944 131.63 484.463 132.668C481.62 133.183 478.873 135.267 476.714 137.088C475.903 137.753 474.929 136.475 475.741 135.81C478.45 133.642 483.953 129.269 487.669 131.387C491.386 133.505 489.912 139.907 489.091 143.146C488.78 144.141 487.261 143.561 487.512 142.542Z" fill="#FFEDCC"/>
<path d="M465.904 126.754C466.623 123.964 468.336 115.842 462.855 116.88C460.012 117.395 457.265 119.479 455.106 121.3C454.295 121.965 453.321 120.687 454.133 120.022C456.842 117.854 462.345 113.481 466.061 115.599C469.778 117.717 468.304 124.119 467.483 127.358C467.172 128.353 465.653 127.772 465.904 126.754Z" fill="#FFEDCC"/>
<path d="M453.06 227.514C453.779 224.724 455.493 216.603 450.012 217.641C447.169 218.156 444.422 220.239 442.263 222.061C441.452 222.726 440.478 221.448 441.289 220.783C443.999 218.615 449.502 214.241 453.218 216.359C456.935 218.477 455.461 224.88 454.64 228.118C454.291 229.03 452.773 228.449 453.06 227.514Z" fill="#FFEDCC"/>
<path d="M77.882 158.413C109.047 162.536 135.781 179.873 145.325 210.742C154.405 240.273 146.343 273.044 123.786 294.36C111.978 305.613 96.8105 313.705 80.8841 317.187C67.4236 320.134 50.6819 320.635 38.5059 312.921C11.4701 295.472 9.8359 254.044 12.6502 225.595C14.5101 207.104 20.8522 188.752 32.5762 174.031C43.8717 159.909 60.5078 156.55 77.882 158.413C80.3198 158.692 80.1938 162.357 77.7489 162.281C63.22 160.711 47.5534 162.57 37.3676 174.077C27.0694 185.887 20.5303 201.074 17.6584 216.374C12.5257 244.038 13.2039 280.646 32.5262 302.952C53.2258 326.727 94.3727 313.425 115.342 296.748C137.885 278.795 148.757 250.29 143.816 222.008C141.257 207.457 134.918 193.095 124.056 182.771C111.409 170.966 94.5962 164.637 77.6435 162.38C75.4164 161.903 75.5495 158.035 77.882 158.413Z" fill="#FFD586"/>
<path d="M41.3292 165.639C56.6514 161.934 73.5831 164.802 86.4267 173.862C100.268 183.564 106.03 199.845 107.718 216C111.438 253.11 98.4317 296.225 65.3086 316.399C63.2222 317.761 61.4022 314.342 63.587 313.084C94.3146 294.365 106.261 255.396 104.389 220.891C103.516 204.761 98.807 187.494 85.3802 177.6C73.1479 168.559 56.9258 165.816 42.2218 169.335C39.7559 169.871 38.9617 166.279 41.3292 165.639Z" fill="#FFD586"/>
<path d="M43.2475 169.163C51.8564 194.603 57.6902 220.669 60.6506 247.259C60.8757 249.61 57.1734 250.514 56.9483 248.163C53.9879 221.574 48.161 195.304 39.5452 170.068C38.8073 167.803 42.5096 166.898 43.2475 169.163Z" fill="#FFD586"/>
<path d="M104.346 213.246C90.4716 225.25 76.2396 241.728 58.1074 247.078C55.7399 247.718 54.9456 244.127 57.2148 243.382C74.4197 238.308 88.4409 222.028 101.788 210.517C103.678 208.945 106.235 211.673 104.346 213.246Z" fill="#FFD586"/>
<path d="M93.8487 272.337C82.9161 264.05 71.3374 256.761 59.007 250.571C56.8009 249.484 58.7466 246.283 60.9528 247.37C73.2831 253.56 84.8619 260.849 95.7944 269.136C97.6844 270.519 95.7387 273.721 93.8487 272.337Z" fill="#FFD586"/>
<path d="M58.7396 246.486C56.7327 269.253 56.8475 292.595 63.4326 314.608C64.1705 316.873 60.4682 317.778 59.7303 315.513C53.0538 293.191 52.7493 269.436 54.8686 246.366C55.1564 243.929 59.0274 244.049 58.7396 246.486Z" fill="#FFD586"/>
<path d="M57.6649 248.084C49.9864 251.923 42.4134 255.663 34.7349 259.502C28.5106 262.571 22.4691 266.257 15.5983 267.369C13.2377 267.806 12.3451 264.109 14.7057 263.673C22.0893 262.474 28.8685 258.098 35.5072 254.838C42.2513 251.48 49.1008 248.023 55.845 244.664C58.2265 243.617 59.9481 246.931 57.6649 248.084Z" fill="#FFD586"/>
<path d="M55.1357 247.496C42.4115 237.93 29.3713 228.66 16.2256 219.489C14.2303 218.204 16.2814 214.904 18.1714 216.288C31.317 225.459 44.3573 234.729 57.0814 244.295C59.0698 245.783 57.0187 249.083 55.1357 247.496Z" fill="#FFD586"/>
<path d="M71.1419 200.193C70.1951 215.858 66.0094 230.812 58.4936 244.746C57.2994 246.849 54.1027 244.916 55.2968 242.813C62.4825 229.582 66.4434 215.233 67.3692 200.178C67.4603 197.531 71.2259 197.749 71.1419 200.193Z" fill="#FFD586"/>
<path d="M61.2198 248.499C66.7354 254.173 70.5791 261.018 72.1465 268.812C72.5753 271.17 68.9784 271.976 68.4442 269.717C66.8557 262.534 63.4969 256.417 58.3748 251.163C56.8079 249.28 59.5476 246.715 61.2198 248.499Z" fill="#FFD586"/>
<path d="M116.454 246.64C114.663 248.318 112.105 245.589 113.896 243.912C115.688 242.234 118.245 244.963 116.454 246.64Z" fill="#FFD586"/>
<path d="M132.058 246.613C130.266 248.291 127.709 245.562 129.5 243.885C131.291 242.207 133.849 244.936 132.058 246.613Z" fill="#FFD586"/>
<path d="M131.737 267.802C129.945 269.479 127.388 266.75 129.179 265.073C130.97 263.396 133.528 266.125 131.737 267.802Z" fill="#FFD586"/>
<path d="M117.187 266.842C115.395 268.519 112.838 265.79 114.629 264.113C116.421 262.436 118.978 265.165 117.187 266.842Z" fill="#FFD586"/>
<path d="M100.876 290.39C99.0847 292.067 96.5271 289.338 98.3184 287.661C100.11 285.984 102.667 288.712 100.876 290.39Z" fill="#FFD586"/>
<path d="M121.909 212.566C122.106 212.776 122.204 212.881 122.401 213.091C124.073 214.875 121.334 217.44 119.661 215.656C119.465 215.446 119.366 215.341 119.17 215.131C117.497 213.347 120.237 210.782 121.909 212.566Z" fill="#FFD586"/>
<path d="M76.8411 283.531C78.4293 287.759 80.3266 291.894 82.4347 295.832C83.4817 298.005 80.1588 299.737 79.1118 297.564C77.1091 293.527 75.2118 289.392 73.5182 285.263C72.5696 283.196 75.8995 281.26 76.8411 283.531Z" fill="#FFD586"/>
<path d="M71.7078 168.922C73.1766 173.656 73.8304 178.364 73.866 183.257C73.782 185.701 70.1147 185.587 69.995 183.138C70.0507 178.553 69.2845 174.147 67.907 169.722C67.2745 167.359 70.9698 166.658 71.7078 168.922Z" fill="#FFD586"/>
<path d="M548.603 424.285C505.914 391.428 458.717 365.488 407.948 347.342C404.65 346.154 406.822 341.031 410.119 342.219C461.312 360.572 509.061 386.885 552.006 420.076C554.725 422.24 551.451 426.616 548.603 424.285Z" fill="#53B72C"/>
<path d="M407.412 341.109C429.119 328.954 454.928 325.609 479.127 332.271C506.495 339.953 528.119 360.552 542.71 384.427C548.761 394.397 558.698 409.089 558.332 421.064C558.147 430.508 544.852 431.152 537.999 431.898C512.896 434.435 486.401 425.816 464.824 412.889C438.5 397.228 417.891 373.458 404.355 346.115C402.676 342.886 407.913 340.724 409.425 344.081C422.141 369.662 441.172 391.721 465.469 406.812C478.361 414.982 492.615 420.777 507.474 424.248C514.185 425.738 520.973 426.637 527.71 426.778C532.047 426.901 536.59 426.601 540.877 425.967C547.602 425.054 552.786 425.59 551.662 415.822C550.78 408.792 545.806 400.919 542.409 394.758C538.665 387.799 534.293 381.058 529.42 374.702C519.931 362.323 508.016 351.276 493.955 344.004C467.271 329.949 435.547 331.459 409.45 346.188C406.356 348.033 404.318 342.954 407.412 341.109Z" fill="#53B72C"/>
<path d="M454.053 330.002C460.194 340.434 466.923 354.401 467.866 366.7C468.159 370.195 462.653 370.969 462.36 367.474C461.558 356.396 455.341 343.098 449.675 333.63C447.867 330.235 452.207 326.902 454.053 330.002Z" fill="#53B72C"/>
<path d="M493.984 382.784C494.155 375.742 492.427 368.299 491.378 361.397C490.458 354.662 489.41 347.76 488.028 341.115C487.273 337.708 492.778 336.934 493.533 340.341C496.554 353.967 499.933 369.444 499.464 383.359C499.423 387.111 493.815 386.368 493.984 382.784Z" fill="#53B72C"/>
<path d="M526.478 404.07C527.062 392.725 525.747 380.978 523.007 369.794C522.251 366.388 527.59 365.742 528.512 369.021C531.509 380.539 532.618 392.71 532.085 404.813C531.788 408.231 526.309 407.655 526.478 404.07Z" fill="#53B72C"/>
<path d="M517.856 401.125C508.701 410.283 492.398 420.147 479.206 418.851C475.793 418.549 476.361 413.064 479.941 413.237C491.066 414.26 505.906 405.254 513.52 397.545C515.896 395.455 520.437 398.611 517.856 401.125Z" fill="#53B72C"/>
<path d="M489.979 385.86C477.771 393.111 464.653 398.137 450.664 400.643C447.134 401.227 446.483 395.881 449.884 395.129C462.949 392.801 475.104 388.249 486.645 381.511C489.572 379.795 492.906 384.144 489.979 385.86Z" fill="#53B72C"/>
<path d="M439.726 361.47C434.206 364.647 428.507 366.898 422.334 368.185C418.933 368.936 418.153 363.423 421.554 362.671C426.637 361.69 431.54 359.785 436.097 357.082C439.486 355.276 442.82 359.626 439.726 361.47Z" fill="#53B72C"/>
<path d="M146.61 105.521C119.567 71.8 87.6847 42.6113 51.5268 18.8156C49.1803 17.2626 51.8533 13.6839 54.1998 15.2369C90.6487 39.2739 122.89 68.8587 150.069 102.89C151.779 105.093 148.387 107.879 146.61 105.521Z" fill="#53B72C"/>
<path d="M52.299 13.8571C71.561 8.51505 92.342 10.8173 109.956 20.6107C129.848 31.8023 142.792 51.9656 149.621 73.3442C152.44 82.2633 157.39 95.6014 154.818 104.863C152.87 112.186 142.371 110.159 136.88 109.437C116.805 106.639 97.7727 94.8838 83.4009 80.7067C65.8464 63.4976 54.3009 41.0559 48.9574 17.176C48.2632 14.3412 52.7632 13.6526 53.3027 16.5556C58.3423 38.9066 68.9836 59.7144 85.0646 76.0946C93.5664 84.9128 103.584 92.1397 114.518 97.6702C119.471 100.108 124.597 102.099 129.828 103.49C133.189 104.411 136.792 105.042 140.259 105.362C145.682 105.93 149.625 107.334 150.613 99.5095C151.267 93.8639 148.888 86.7832 147.413 81.3363C145.82 75.2024 143.695 69.1182 141.106 63.2384C136.064 51.7883 128.873 40.9145 119.288 32.5733C101.146 16.5466 76.0994 11.6891 52.9194 18.2023C50.1527 19.0513 49.5323 14.706 52.299 13.8571Z" fill="#53B72C"/>
<path d="M90.8202 14.0738C93.6211 23.3705 96.2063 35.5333 94.5938 45.2956C94.1552 48.0752 89.7105 47.6309 90.1491 44.8514C91.6381 36.0671 89.3256 24.5233 86.7106 16.0684C85.9483 13.0788 89.9713 11.3071 90.8202 14.0738Z" fill="#53B72C"/>
<path d="M111.907 62.7958C113.385 57.3418 113.457 51.2136 113.957 45.6361C114.524 40.2134 115.024 34.6359 115.214 29.1947C115.275 26.3968 119.72 26.8411 119.659 29.639C119.415 40.8309 119.097 53.5331 116.073 64.2863C115.325 67.2021 111.091 65.5569 111.907 62.7958Z" fill="#53B72C"/>
<path d="M133.202 85.5625C135.824 76.8336 137.04 67.4304 137.037 58.1947C137.098 55.3968 141.388 55.9092 141.482 58.639C141.621 68.1842 140.163 77.8784 137.437 87.2077C136.552 89.8141 132.386 88.3236 133.202 85.5625Z" fill="#53B72C"/>
<path d="M127.035 81.6276C118.142 87.022 103.535 91.6073 93.487 88.0884C90.8807 87.204 92.3711 83.0376 95.1322 83.8538C103.62 86.7666 116.921 82.5717 124.335 78.0134C126.588 76.8366 129.53 80.1597 127.035 81.6276Z" fill="#53B72C"/>
<path d="M108.193 64.4312C97.2812 67.7588 86.0838 69.1799 74.6875 68.4716C71.8214 68.2559 72.3338 63.966 75.1318 64.027C85.7728 64.6983 96.1285 63.4632 106.422 60.4082C109.034 59.6274 110.805 63.6504 108.193 64.4312Z" fill="#53B72C"/>
<path d="M73.631 35.8686C68.7165 37.2939 63.8389 37.9639 58.7753 37.7922C55.9773 37.7312 56.4216 33.2866 59.2196 33.3476C63.3732 33.5505 67.5638 32.9983 71.6365 31.759C74.6261 30.9966 76.3977 35.0196 73.631 35.8686Z" fill="#53B72C"/>
</svg>
