<svg width="286" height="194" viewBox="0 0 286 194" fill="none" xmlns="http://www.w3.org/2000/svg">
<path d="M112.747 79.2582C115.309 81.1601 118.482 81.7861 121.359 80.2113C124.107 78.7013 125.836 75.7438 125.699 72.5967C125.633 70.9423 125.1 69.281 124.186 67.9018C123.413 66.7359 122.229 65.5163 120.796 65.2179C117.594 64.5787 114.547 67.4818 112.742 69.7535C111.57 71.2322 110.736 73.0176 110.55 74.9186C110.375 76.7458 111.35 78.1661 112.747 79.2582C112.944 79.4101 113.194 79.1342 113.011 78.9669C111.841 78.0547 110.831 76.8121 110.902 75.2539C110.986 73.6657 111.583 72.097 112.455 70.7793C114.036 68.4009 116.672 65.7815 119.656 65.5217C122.845 65.2522 124.903 69.129 125.252 71.826C125.626 74.7271 124.404 77.5724 122.045 79.2838C120.83 80.1632 119.354 80.7617 117.833 80.7463C116.077 80.7128 114.405 79.9858 113.01 78.9523C112.814 78.8296 112.55 79.1209 112.747 79.2582Z" fill="#FFD586"/>
<path d="M110.594 76.1487C111.449 77.5013 112.885 78.4889 114.461 78.7364C116.155 79.0075 117.726 78.2285 118.99 77.1707C121.884 74.7297 123.983 70.6691 122.995 66.8585C122.939 66.6118 122.565 66.7324 122.635 66.9784C123.552 70.5137 121.668 74.1973 119.093 76.5791C117.89 77.6926 116.327 78.618 114.649 78.39C113.119 78.1844 111.743 77.2379 110.921 75.9424C110.779 75.7291 110.467 75.9347 110.594 76.1487Z" fill="#FFD586"/>
<path d="M110.983 76.0274C113.408 74.7822 115.675 73.2952 117.77 71.5671C117.952 71.4117 117.747 71.0841 117.564 71.2395C115.469 72.9677 113.188 74.47 110.777 75.6999C110.564 75.8128 110.769 76.1403 110.983 76.0274Z" fill="#FFD586"/>
<path d="M118.55 77.1331C118.387 75.278 118.515 73.0717 117.572 71.4005C117.445 71.1865 117.133 71.3921 117.246 71.6068C118.141 73.1922 118.012 75.3692 118.171 77.1512C118.197 77.3993 118.577 77.3812 118.55 77.1331Z" fill="#FFD586"/>
<path d="M121.961 72.0858C120.579 71.917 119.22 71.6299 117.884 71.2096C117.647 71.1329 117.562 71.5036 117.8 71.5803C119.136 72.0006 120.494 72.2878 121.877 72.4565C122.112 72.4893 122.196 72.1185 121.961 72.0858Z" fill="#FFD586"/>
<path d="M117.576 71.4883C119.039 69.6876 120.697 67.995 122.732 66.8564C122.946 66.7435 122.74 66.416 122.526 66.5289C120.462 67.6835 118.761 69.3929 117.286 71.2235C117.134 71.4214 117.425 71.6862 117.576 71.4883Z" fill="#FFD586"/>
<path d="M117.611 71.296C117.322 70.4736 117.035 69.6659 116.747 68.8436C116.51 68.1802 116.33 67.4847 115.908 66.9181C115.767 66.7195 115.441 66.9257 115.582 67.1244C116.035 67.7334 116.22 68.5314 116.474 69.238C116.728 69.9593 116.982 70.6952 117.236 71.4165C117.336 71.6611 117.696 71.5413 117.611 71.296Z" fill="#FFD586"/>
<path d="M117.385 71.1601C115.782 70.9579 114.177 70.7118 112.571 70.4511C112.334 70.4037 112.251 70.7891 112.486 70.8218C114.092 71.0825 115.697 71.3286 117.3 71.5308C117.55 71.5629 117.634 71.1775 117.385 71.1601Z" fill="#FFD586"/>
<path d="M115.208 75.7377C116.246 74.5294 116.998 73.1441 117.435 71.5977C117.497 71.3601 117.127 71.275 117.066 71.5127C116.654 72.9845 115.929 74.3099 114.932 75.4722C114.752 75.6715 115.042 75.9217 115.208 75.7377Z" fill="#FFD586"/>
<path d="M117.899 71.5169C118.702 71.4932 119.466 71.2661 120.131 70.809C120.328 70.6675 120.123 70.3546 119.925 70.4814C119.301 70.8926 118.624 71.1009 117.88 71.1218C117.633 71.1482 117.651 71.5287 117.899 71.5169Z" fill="#FFD586"/>
<path d="M121.792 75.5555C121.78 75.3067 121.401 75.3248 121.413 75.5736C121.425 75.8224 121.804 75.8043 121.792 75.5555Z" fill="#FFD586"/>
<path d="M122.927 76.6601C122.915 76.4113 122.536 76.4294 122.548 76.6782C122.56 76.927 122.939 76.9089 122.927 76.6601Z" fill="#FFD586"/>
<path d="M124.401 75.0936C124.389 74.8448 124.01 74.8629 124.022 75.1117C124.034 75.3605 124.413 75.3424 124.401 75.0936Z" fill="#FFD586"/>
<path d="M123.273 74.1353C123.261 73.8866 122.882 73.9047 122.894 74.1534C122.906 74.4022 123.285 74.3841 123.273 74.1353Z" fill="#FFD586"/>
<path d="M123.749 71.267C123.737 71.0182 123.358 71.0363 123.37 71.2851C123.382 71.5339 123.761 71.5158 123.749 71.267Z" fill="#FFD586"/>
<path d="M119.782 78.4237C119.811 78.4224 119.825 78.4217 119.855 78.4203C120.103 78.4084 120.084 78.0279 119.836 78.0398C119.807 78.0412 119.793 78.0419 119.763 78.0432C119.515 78.0551 119.534 78.4356 119.782 78.4237Z" fill="#FFD586"/>
<path d="M121.513 70.0683C121.927 69.8725 122.358 69.7052 122.79 69.5673C123.019 69.483 122.9 69.122 122.67 69.2063C122.239 69.3589 121.808 69.5261 121.393 69.7073C121.178 69.7909 121.284 70.1672 121.513 70.0683Z" fill="#FFD586"/>
<path d="M113.04 78.0561C113.481 77.815 113.862 77.5182 114.21 77.1642C114.377 76.9802 114.101 76.7293 113.92 76.8994C113.6 77.2373 113.232 77.5042 112.819 77.7293C112.606 77.8568 112.826 78.169 113.04 78.0561Z" fill="#FFD586"/>
<path d="M267.929 105.99C271.408 108.572 275.716 109.422 279.622 107.284C283.353 105.234 285.7 101.218 285.513 96.9455C285.425 94.6993 284.701 92.4436 283.459 90.5712C282.411 88.9882 280.803 87.3323 278.858 86.9273C274.509 86.0594 270.373 90.0009 267.922 93.0852C266.332 95.0929 265.198 97.5168 264.946 100.098C264.708 102.579 266.032 104.507 267.929 105.99C268.197 106.196 268.536 105.821 268.287 105.594C266.699 104.356 265.328 102.669 265.424 100.553C265.539 98.3968 266.349 96.267 267.533 94.4779C269.679 91.2488 273.258 87.6924 277.31 87.3397C281.639 86.9738 284.433 92.2374 284.907 95.899C285.415 99.8379 283.756 103.701 280.553 106.024C278.904 107.218 276.899 108.031 274.834 108.01C272.45 107.965 270.18 106.978 268.286 105.574C268.02 105.408 267.662 105.803 267.929 105.99Z" fill="#FFD586"/>
<path d="M265.007 101.768C266.167 103.604 268.117 104.945 270.257 105.281C272.557 105.649 274.689 104.592 276.406 103.156C280.334 99.8414 283.184 94.3283 281.843 89.1547C281.767 88.8198 281.259 88.9834 281.355 89.3174C282.599 94.1173 280.041 99.1185 276.546 102.352C274.912 103.864 272.789 105.121 270.512 104.811C268.434 104.532 266.566 103.247 265.45 101.488C265.257 101.198 264.834 101.477 265.007 101.768Z" fill="#FFD586"/>
<path d="M265.534 101.603C268.827 99.9127 271.905 97.8938 274.749 95.5475C274.997 95.3365 274.717 94.8918 274.469 95.1028C271.625 97.4491 268.529 99.4888 265.255 101.159C264.965 101.312 265.244 101.757 265.534 101.603Z" fill="#FFD586"/>
<path d="M275.808 103.104C275.587 100.586 275.76 97.5903 274.48 95.3213C274.307 95.0309 273.884 95.31 274.037 95.6014C275.252 97.7539 275.077 100.71 275.293 103.129C275.329 103.466 275.844 103.441 275.808 103.104Z" fill="#FFD586"/>
<path d="M280.439 96.2517C278.562 96.0227 276.718 95.6327 274.904 95.0621C274.581 94.958 274.467 95.4614 274.789 95.5655C276.603 96.1361 278.448 96.526 280.324 96.7551C280.644 96.7996 280.759 96.2962 280.439 96.2517Z" fill="#FFD586"/>
<path d="M274.486 95.4406C276.471 92.9958 278.722 90.6977 281.486 89.1519C281.776 88.9986 281.497 88.5539 281.206 88.7072C278.404 90.2748 276.095 92.5956 274.091 95.081C273.886 95.3497 274.28 95.7093 274.486 95.4406Z" fill="#FFD586"/>
<path d="M274.533 95.1794C274.141 94.0629 273.751 92.9663 273.36 91.8499C273.038 90.9491 272.794 90.0048 272.221 89.2356C272.03 88.9659 271.587 89.246 271.779 89.5156C272.394 90.3426 272.645 91.4259 272.989 92.3854C273.334 93.3646 273.68 94.3638 274.024 95.3431C274.16 95.6752 274.648 95.5125 274.533 95.1794Z" fill="#FFD586"/>
<path d="M274.226 94.9949C272.049 94.7204 269.87 94.3863 267.69 94.0323C267.369 93.968 267.255 94.4912 267.575 94.5357C269.755 94.8897 271.935 95.2238 274.111 95.4983C274.451 95.5418 274.565 95.0186 274.226 94.9949Z" fill="#FFD586"/>
<path d="M271.271 101.21C272.68 99.5695 273.701 97.6886 274.294 95.5891C274.378 95.2665 273.876 95.151 273.793 95.4736C273.234 97.4719 272.249 99.2714 270.896 100.85C270.651 101.12 271.045 101.46 271.271 101.21Z" fill="#FFD586"/>
<path d="M274.924 95.4794C276.014 95.4473 277.051 95.1389 277.954 94.5182C278.223 94.3262 277.944 93.9014 277.674 94.0735C276.828 94.6317 275.909 94.9146 274.898 94.9429C274.563 94.9788 274.588 95.4954 274.924 95.4794Z" fill="#FFD586"/>
<path d="M280.21 100.963C280.194 100.625 279.679 100.649 279.695 100.987C279.711 101.325 280.226 101.3 280.21 100.963Z" fill="#FFD586"/>
<path d="M281.751 102.462C281.734 102.125 281.22 102.149 281.236 102.487C281.252 102.825 281.767 102.8 281.751 102.462Z" fill="#FFD586"/>
<path d="M283.752 100.335C283.736 99.9977 283.221 100.022 283.237 100.36C283.253 100.698 283.768 100.673 283.752 100.335Z" fill="#FFD586"/>
<path d="M282.221 99.0344C282.204 98.6967 281.689 98.7212 281.706 99.059C281.722 99.3968 282.237 99.3722 282.221 99.0344Z" fill="#FFD586"/>
<path d="M282.866 95.1401C282.85 94.8023 282.335 94.8269 282.351 95.1647C282.368 95.5025 282.882 95.4779 282.866 95.1401Z" fill="#FFD586"/>
<path d="M277.48 104.857C277.52 104.855 277.54 104.854 277.579 104.852C277.916 104.836 277.891 104.319 277.554 104.335C277.515 104.337 277.495 104.338 277.455 104.34C277.119 104.356 277.144 104.873 277.48 104.857Z" fill="#FFD586"/>
<path d="M279.831 93.5126C280.393 93.2467 280.978 93.0197 281.564 92.8324C281.876 92.7179 281.714 92.2278 281.401 92.3423C280.816 92.5495 280.232 92.7765 279.668 93.0225C279.376 93.136 279.519 93.6469 279.831 93.5126Z" fill="#FFD586"/>
<path d="M268.327 104.358C268.926 104.03 269.443 103.627 269.916 103.147C270.142 102.897 269.768 102.556 269.521 102.787C269.087 103.246 268.588 103.608 268.028 103.914C267.738 104.087 268.036 104.511 268.327 104.358Z" fill="#FFD586"/>
<path d="M1.45961 177.151C-0.07645 181.71 0.501201 186.551 4.09698 189.944C7.54013 193.183 12.5847 194.286 17.0338 192.626C19.3759 191.764 21.5103 190.226 23.0629 188.274C24.3756 186.624 25.5738 184.359 25.3357 182.166C24.7631 177.276 19.1837 174.257 15.0867 172.724C12.4217 171.732 9.47344 171.365 6.66084 171.983C3.9593 172.581 2.37587 174.639 1.45961 177.151C1.33351 177.505 1.84536 177.735 1.9999 177.394C2.7643 175.293 4.07651 173.266 6.34398 172.644C8.66054 172.026 11.1874 172.152 13.4824 172.79C17.628 173.951 22.61 176.514 24.37 180.672C26.2388 185.119 21.6364 189.873 17.9315 191.628C13.9451 193.513 9.29678 193.083 5.74603 190.496C3.92023 189.163 2.37532 187.324 1.69025 185.136C0.922023 182.603 1.18693 179.867 2.02056 177.386C2.10535 177.048 1.56506 176.805 1.45961 177.151Z" fill="#FFD586"/>
<path d="M4.9178 172.619C3.37542 174.473 2.6271 176.992 3.00499 179.367C3.4038 181.922 5.25105 183.812 7.35586 185.133C12.2015 188.148 19.0003 189.27 24.0054 186.082C24.3332 185.887 23.9864 185.406 23.6663 185.622C19.0226 188.579 12.8647 187.591 8.25217 185.006C6.09584 183.798 4.04202 181.987 3.58902 179.475C3.17249 177.185 3.88995 174.772 5.36526 172.99C5.60511 172.688 5.16543 172.337 4.9178 172.619Z" fill="#FFD586"/>
<path d="M5.27243 173.12C8.18548 176.018 11.3719 178.578 14.824 180.778C15.1317 180.967 15.5057 180.52 15.198 180.331C11.7459 178.13 8.53104 175.558 5.64643 172.672C5.38514 172.418 5.01115 172.866 5.27243 173.12Z" fill="#FFD586"/>
<path d="M7.20512 184.485C9.78971 183.389 13.0128 182.546 14.9707 180.416C15.2183 180.135 14.7787 179.783 14.5233 180.045C12.6659 182.065 9.48416 182.893 7.00286 183.949C6.65947 184.103 6.86172 184.638 7.20512 184.485Z" fill="#FFD586"/>
<path d="M16.0288 187.029C15.6281 184.969 15.4082 182.887 15.3897 180.776C15.3892 180.399 14.8183 180.451 14.8189 180.827C14.8373 182.938 15.0572 185.02 15.4579 187.08C15.5204 187.433 16.0913 187.382 16.0288 187.029Z" fill="#FFD586"/>
<path d="M14.8468 180.463C18.1089 181.724 21.3069 183.314 23.886 185.703C24.1473 185.957 24.5213 185.51 24.26 185.256C21.6447 182.833 18.4027 181.189 15.0915 179.924C14.7374 179.799 14.4927 180.339 14.8468 180.463Z" fill="#FFD586"/>
<path d="M15.1387 180.424C16.1839 179.628 17.2085 178.84 18.2537 178.045C19.095 177.397 20.0088 176.816 20.625 175.947C20.8442 175.652 20.3968 175.28 20.1776 175.575C19.5149 176.508 18.4565 177.144 17.561 177.836C16.6448 178.536 15.708 179.243 14.7918 179.943C14.4873 180.199 14.8264 180.659 15.1387 180.424Z" fill="#FFD586"/>
<path d="M15.2285 180.037C14.7731 177.644 14.3797 175.227 14.0069 172.803C13.965 172.443 13.3735 172.502 13.436 172.855C13.8088 175.279 14.2022 177.695 14.6577 180.088C14.7279 180.461 15.3195 180.402 15.2285 180.037Z" fill="#FFD586"/>
<path d="M7.6523 179.044C9.86765 179.971 12.2038 180.404 14.6244 180.312C14.9938 180.29 14.9439 179.721 14.5745 179.743C12.2727 179.837 10.0348 179.413 7.90476 178.525C7.53509 178.359 7.31106 178.891 7.6523 179.044Z" fill="#FFD586"/>
<path d="M14.9559 180.94C15.3631 182.08 16.044 183.07 17.0086 183.811C17.3035 184.029 17.6568 183.589 17.3826 183.363C16.5033 182.661 15.8898 181.787 15.5137 180.729C15.3608 180.387 14.8237 180.59 14.9559 180.94Z" fill="#FFD586"/>
<path d="M10.9747 188.4C11.3259 188.267 11.1236 187.732 10.7725 187.865C10.4213 187.998 10.6235 188.533 10.9747 188.4Z" fill="#FFD586"/>
<path d="M9.91844 190.541C10.2696 190.408 10.0674 189.873 9.71618 190.006C9.36501 190.139 9.56726 190.674 9.91844 190.541Z" fill="#FFD586"/>
<path d="M12.8501 191.927C13.2012 191.794 12.999 191.258 12.6478 191.391C12.2966 191.524 12.4989 192.059 12.8501 191.927Z" fill="#FFD586"/>
<path d="M13.6998 189.864C14.0509 189.731 13.8487 189.195 13.4975 189.328C13.1463 189.461 13.3486 189.996 13.6998 189.864Z" fill="#FFD586"/>
<path d="M18.034 189.212C18.3852 189.079 18.1829 188.544 17.8318 188.677C17.4806 188.809 17.6828 189.345 18.034 189.212Z" fill="#FFD586"/>
<path d="M5.92696 186.851C5.94252 186.892 5.9503 186.913 5.96586 186.954C6.0981 187.304 6.63519 187.101 6.50295 186.751C6.48739 186.709 6.47961 186.689 6.46405 186.648C6.33181 186.298 5.79472 186.501 5.92696 186.851Z" fill="#FFD586"/>
<path d="M18.7134 185.448C19.1869 185.952 19.6269 186.491 20.0255 187.046C20.2533 187.337 20.7152 186.997 20.4875 186.707C20.0682 186.159 19.6283 185.62 19.1754 185.109C18.9555 184.839 18.465 185.166 18.7134 185.448Z" fill="#FFD586"/>
<path d="M3.31951 177.012C3.87052 177.533 4.47304 177.941 5.14264 178.276C5.48387 178.429 5.71568 177.918 5.38732 177.736C4.75394 177.434 4.20051 177.032 3.68572 176.544C3.40378 176.298 3.05822 176.758 3.31951 177.012Z" fill="#FFD586"/>
<path d="M190.2 55.1H198.9V60.9H190.2V55.1ZM135.1 55.1H143.8V60.9H135.1V55.1ZM169.9 26.1V34.8H164.1V26.1H169.9ZM146.468 33.35L152.645 39.556L148.527 43.645L142.35 37.497L146.468 33.35ZM181.355 39.527L187.503 33.35L191.65 37.497L185.473 43.645L181.355 39.527ZM167 40.6C171.615 40.6 176.041 42.4332 179.304 45.6963C182.567 48.9595 184.4 53.3852 184.4 58C184.4 64.438 180.891 70.064 175.7 73.08V78.3C175.7 79.0691 175.394 79.8068 174.851 80.3506C174.307 80.8945 173.569 81.2 172.8 81.2H161.2C160.431 81.2 159.693 80.8945 159.149 80.3506C158.606 79.8068 158.3 79.0691 158.3 78.3V73.08C153.109 70.064 149.6 64.438 149.6 58C149.6 53.3852 151.433 48.9595 154.696 45.6963C157.959 42.4332 162.385 40.6 167 40.6ZM172.8 84.1V87C172.8 87.7691 172.494 88.5068 171.951 89.0506C171.407 89.5945 170.669 89.9 169.9 89.9H164.1C163.331 89.9 162.593 89.5945 162.049 89.0506C161.506 88.5068 161.2 87.7691 161.2 87V84.1H172.8ZM164.1 75.4H169.9V69.223C174.917 67.947 178.6 63.394 178.6 58C178.6 54.9235 177.378 51.973 175.202 49.7976C173.027 47.6221 170.076 46.4 167 46.4C163.923 46.4 160.973 47.6221 158.798 49.7976C156.622 51.973 155.4 54.9235 155.4 58C155.4 63.394 159.083 67.947 164.1 69.223V75.4Z" fill="#53B72C"/>
</svg>
