<svg width="20" height="21" viewBox="0 0 20 21" fill="none" xmlns="http://www.w3.org/2000/svg">
<path d="M3.43626 18.4247C6.66729 20.8231 10.6687 21.6125 14.2965 19.6266C17.7624 17.7224 19.942 13.9928 19.769 10.0241C19.6867 7.93782 19.0142 5.8427 17.8611 4.10348C16.887 2.63318 15.3934 1.09519 13.5871 0.71897C9.54808 -0.0871052 5.7061 3.57381 3.42947 6.43861C1.95255 8.30336 0.899834 10.5548 0.665247 12.9522C0.444598 15.2564 1.6739 17.0475 3.43626 18.4247C3.68514 18.6163 4.00017 18.2683 3.76878 18.0573C2.29387 16.9069 1.02008 15.3399 1.10962 13.3749C1.21577 11.3721 1.9683 9.39397 3.0679 7.7322C5.06154 4.73293 8.38618 1.42966 12.1493 1.10206C16.1699 0.762164 18.7653 5.65111 19.2059 9.05212C19.6774 12.7106 18.1361 16.2987 15.1618 18.4569C13.6299 19.5659 11.7677 20.3207 9.84961 20.3013C7.63551 20.259 5.52669 19.3423 3.76789 18.0389C3.52079 17.8842 3.18827 18.2515 3.43626 18.4247Z" fill="#FFD586"/>
<path d="M0.721626 14.5033C1.79935 16.2091 3.61065 17.4545 5.59813 17.7666C7.73452 18.1086 9.71485 17.1262 11.3095 15.7922C14.9584 12.7139 17.6055 7.59325 16.3598 2.78786C16.2895 2.47676 15.8176 2.62877 15.9063 2.93899C17.0615 7.39724 14.6864 12.0425 11.4395 15.0461C9.92189 16.4504 7.95046 17.6173 5.83513 17.3298C3.9055 17.0705 2.17044 15.877 1.13306 14.2432C0.954179 13.9743 0.56114 14.2335 0.721626 14.5033Z" fill="#FFD586"/>
<path d="M1.21197 14.3504C4.26997 12.7802 7.12892 10.9049 9.77044 8.72563C10.0006 8.52966 9.74106 8.11661 9.51087 8.31257C6.86936 10.4919 3.9929 12.3864 0.952399 13.9374C0.682758 14.0797 0.942326 14.4928 1.21197 14.3504Z" fill="#FFD586"/>
<path d="M10.7542 15.7447C10.5492 13.4053 10.7099 10.623 9.52066 8.51558C9.36018 8.24578 8.96714 8.505 9.10923 8.77568C10.238 10.775 10.0755 13.5204 10.2761 15.7675C10.3096 16.0804 10.7878 16.0576 10.7542 15.7447Z" fill="#FFD586"/>
<path d="M15.0556 9.37973C13.3126 9.16697 11.5992 8.80481 9.9146 8.27481C9.61499 8.17812 9.50851 8.64564 9.80811 8.74233C11.4927 9.27233 13.2061 9.63449 14.9492 9.84725C15.2461 9.88857 15.3526 9.42105 15.0556 9.37973Z" fill="#FFD586"/>
<path d="M9.52601 8.62631C11.3705 6.35556 13.4611 4.22105 16.0279 2.78521C16.2975 2.64286 16.038 2.2298 15.7683 2.37215C13.1656 3.8282 11.0207 5.98381 9.15965 8.29234C8.96892 8.54192 9.33527 8.87588 9.52601 8.62631Z" fill="#FFD586"/>
<path d="M9.56961 8.38376C9.2062 7.34675 8.84369 6.32819 8.48029 5.29118C8.18185 4.45454 7.9552 3.57747 7.42301 2.86297C7.24503 2.6125 6.8336 2.87261 7.01158 3.12308C7.58322 3.89119 7.8161 4.89744 8.1356 5.78857C8.45599 6.69815 8.77727 7.62619 9.09766 8.53577C9.22314 8.84424 9.6767 8.69311 9.56961 8.38376Z" fill="#FFD586"/>
<path d="M9.28483 8.21238C7.26324 7.95742 5.23897 7.64709 3.21382 7.31831C2.916 7.25854 2.8104 7.74452 3.10734 7.78583C5.13249 8.11461 7.15675 8.42494 9.17835 8.6799C9.49367 8.72034 9.59927 8.23436 9.28483 8.21238Z" fill="#FFD586"/>
<path d="M6.54017 13.9851C7.84919 12.4613 8.79721 10.7143 9.34832 8.76427C9.42603 8.4646 8.96001 8.35736 8.8823 8.65703C8.36352 10.513 7.44873 12.1845 6.1922 13.6503C5.96469 13.9016 6.33015 14.2171 6.54017 13.9851Z" fill="#FFD586"/>
<path d="M9.93329 8.66236C10.9457 8.63253 11.9089 8.34609 12.7475 7.76964C12.9969 7.59125 12.7383 7.19665 12.4879 7.35659C11.7018 7.87504 10.8481 8.13776 9.90925 8.16408C9.59749 8.19745 9.62063 8.67728 9.93329 8.66236Z" fill="#FFD586"/>
<path d="M14.8428 13.7553C14.8276 13.4416 14.3494 13.4644 14.3646 13.7781C14.3797 14.0919 14.8579 14.069 14.8428 13.7553Z" fill="#FFD586"/>
<path d="M16.2741 15.1483C16.2589 14.8346 15.7808 14.8574 15.7959 15.1711C15.811 15.4849 16.2892 15.462 16.2741 15.1483Z" fill="#FFD586"/>
<path d="M18.1328 13.1728C18.1176 12.8591 17.6394 12.8819 17.6546 13.1957C17.6697 13.5094 18.1479 13.4866 18.1328 13.1728Z" fill="#FFD586"/>
<path d="M16.7104 11.9644C16.6952 11.6507 16.217 11.6735 16.2322 11.9872C16.2473 12.301 16.7255 12.2781 16.7104 11.9644Z" fill="#FFD586"/>
<path d="M17.3101 8.34725C17.2949 8.03351 16.8168 8.05634 16.8319 8.37008C16.847 8.68381 17.3252 8.66099 17.3101 8.34725Z" fill="#FFD586"/>
<path d="M12.3075 17.3724C12.3443 17.3706 12.3626 17.3697 12.3994 17.368C12.7121 17.353 12.6889 16.8732 12.3763 16.8881C12.3395 16.8899 12.3211 16.8908 12.2843 16.8925C11.9717 16.9074 11.9948 17.3873 12.3075 17.3724Z" fill="#FFD586"/>
<path d="M14.4905 6.83556C15.0132 6.58864 15.556 6.37775 16.1006 6.20378C16.3904 6.09745 16.2394 5.64222 15.9496 5.74855C15.4059 5.94098 14.8631 6.15186 14.3395 6.38032C14.0681 6.48577 14.2016 6.96033 14.4905 6.83556Z" fill="#FFD586"/>
<path d="M3.80553 16.9088C4.36231 16.6047 4.84196 16.2304 5.28127 15.784C5.49129 15.552 5.14422 15.2356 4.91492 15.45C4.5115 15.8762 4.04846 16.2128 3.52757 16.4966C3.25882 16.6574 3.53589 17.0511 3.80553 16.9088Z" fill="#FFD586"/>
</svg>
