<svg width="14" height="15" viewBox="0 0 14 15" fill="none" xmlns="http://www.w3.org/2000/svg">
<path d="M2.32939 12.859C4.55487 14.511 7.31094 15.0547 9.80973 13.6869C12.197 12.3753 13.6982 9.80645 13.5791 7.07287C13.5224 5.63587 13.0592 4.19279 12.265 2.99485C11.594 1.98214 10.5652 0.922796 9.32112 0.66366C6.5391 0.108449 3.89282 2.63002 2.32472 4.60324C1.30744 5.88765 0.582349 7.43841 0.420769 9.08968C0.268791 10.6768 1.11552 11.9104 2.32939 12.859C2.50082 12.991 2.7178 12.7513 2.55843 12.606C1.54254 11.8136 0.665171 10.7343 0.726845 9.38085C0.799961 8.00136 1.31829 6.63884 2.07567 5.49424C3.44885 3.4284 5.73881 1.15317 8.33079 0.927523C11.1001 0.693411 12.8878 4.06083 13.1912 6.40338C13.516 8.92329 12.4544 11.3947 10.4057 12.8812C9.35062 13.6451 8.06792 14.165 6.74679 14.1516C5.22176 14.1225 3.76924 13.491 2.55782 12.5933C2.38762 12.4868 2.15858 12.7398 2.32939 12.859Z" fill="#FFD586"/>
<path d="M0.459603 10.1581C1.20192 11.333 2.44951 12.1908 3.81845 12.4058C5.28996 12.6413 6.65397 11.9646 7.75237 11.0458C10.2657 8.92557 12.0889 5.39854 11.2309 2.08867C11.1825 1.87439 10.8574 1.97909 10.9185 2.19277C11.7142 5.26354 10.0783 8.4631 7.84185 10.5319C6.79658 11.4992 5.43869 12.3029 3.98169 12.1049C2.6526 11.9263 1.45752 11.1042 0.742989 9.97892C0.619781 9.79369 0.349062 9.97224 0.459603 10.1581Z" fill="#FFD586"/>
<path d="M0.797341 10.0528C2.90364 8.97119 4.87283 7.67957 6.69226 6.1785C6.85081 6.04352 6.67202 5.75902 6.51347 5.894C4.69405 7.39506 2.7128 8.7 0.618555 9.76826C0.432832 9.86631 0.611617 10.1508 0.797341 10.0528Z" fill="#FFD586"/>
<path d="M7.36989 11.0131C7.22867 9.40179 7.33937 7.48539 6.52022 6.03382C6.40968 5.84799 6.13896 6.02654 6.23683 6.21298C7.0143 7.59009 6.90237 9.48107 7.04053 11.0288C7.06362 11.2443 7.39298 11.2286 7.36989 11.0131Z" fill="#FFD586"/>
<path d="M10.3326 6.62904C9.13204 6.48249 7.95189 6.23304 6.79155 5.86798C6.58519 5.80139 6.51185 6.12341 6.71821 6.19C7.87854 6.55506 9.05869 6.80451 10.2593 6.95106C10.4638 6.97952 10.5371 6.6575 10.3326 6.62904Z" fill="#FFD586"/>
<path d="M6.5239 6.11009C7.79432 4.54604 9.23433 3.07583 11.0023 2.08685C11.188 1.9888 11.0092 1.70429 10.8235 1.80234C9.03082 2.80524 7.55342 4.28999 6.27156 5.88006C6.14019 6.05196 6.39253 6.28199 6.5239 6.11009Z" fill="#FFD586"/>
<path d="M6.55393 5.94303C6.30362 5.22875 6.05393 4.52719 5.80363 3.81291C5.59807 3.23665 5.44196 2.63255 5.0754 2.14041C4.9528 1.96789 4.66942 2.14705 4.79201 2.31957C5.18574 2.84863 5.34615 3.54171 5.56621 4.15551C5.78689 4.78201 6.00818 5.42123 6.22886 6.04773C6.31529 6.2602 6.62769 6.1561 6.55393 5.94303Z" fill="#FFD586"/>
<path d="M6.35778 5.82498C4.96535 5.64937 3.57107 5.43563 2.17618 5.20917C1.97104 5.168 1.89831 5.50273 2.10284 5.53119C3.49773 5.75765 4.892 5.97139 6.28444 6.147C6.50163 6.17486 6.57436 5.84013 6.35778 5.82498Z" fill="#FFD586"/>
<path d="M4.46731 9.80115C5.36894 8.75159 6.02192 7.54828 6.40151 6.20512C6.45504 5.99871 6.13405 5.92485 6.08053 6.13125C5.7232 7.40964 5.09311 8.56091 4.22764 9.57051C4.07093 9.74362 4.32265 9.96094 4.46731 9.80115Z" fill="#FFD586"/>
<path d="M6.80443 6.13492C7.50177 6.11438 8.16519 5.91708 8.74279 5.52003C8.91462 5.39716 8.73645 5.12537 8.564 5.23553C8.02257 5.59263 7.43454 5.77359 6.78787 5.79171C6.57313 5.81471 6.58908 6.1452 6.80443 6.13492Z" fill="#FFD586"/>
<path d="M10.186 9.64285C10.1756 9.42676 9.84619 9.44248 9.85662 9.65857C9.86704 9.87467 10.1964 9.85895 10.186 9.64285Z" fill="#FFD586"/>
<path d="M11.1718 10.6023C11.1614 10.3862 10.8321 10.4019 10.8425 10.618C10.8529 10.8341 11.1823 10.8184 11.1718 10.6023Z" fill="#FFD586"/>
<path d="M12.4521 9.24165C12.4416 9.02556 12.1123 9.04128 12.1227 9.25737C12.1331 9.47347 12.4625 9.45775 12.4521 9.24165Z" fill="#FFD586"/>
<path d="M11.4723 8.4093C11.4619 8.19321 11.1326 8.20893 11.143 8.42503C11.1534 8.64112 11.4828 8.6254 11.4723 8.4093Z" fill="#FFD586"/>
<path d="M11.8854 5.91788C11.875 5.70179 11.5456 5.71751 11.5561 5.9336C11.5665 6.1497 11.8958 6.13398 11.8854 5.91788Z" fill="#FFD586"/>
<path d="M8.43972 12.1342C8.46506 12.133 8.47773 12.1324 8.50306 12.1312C8.71841 12.1209 8.70247 11.7904 8.48712 11.8007C8.46178 11.8019 8.44911 11.8025 8.42378 11.8037C8.20843 11.814 8.22437 12.1445 8.43972 12.1342Z" fill="#FFD586"/>
<path d="M9.94335 4.87665C10.3034 4.70658 10.6773 4.56133 11.0524 4.44149C11.252 4.36826 11.148 4.05471 10.9484 4.12794C10.5739 4.26048 10.2 4.40574 9.83935 4.5631C9.6524 4.63573 9.74435 4.9626 9.94335 4.87665Z" fill="#FFD586"/>
<path d="M2.58374 11.8149C2.96724 11.6055 3.29762 11.3476 3.60021 11.0402C3.74486 10.8804 3.5058 10.6625 3.34787 10.8101C3.07 11.1037 2.75106 11.3355 2.39228 11.531C2.20717 11.6418 2.39801 11.913 2.58374 11.8149Z" fill="#FFD586"/>
</svg>
