<svg width="315" height="185" viewBox="0 0 315 185" fill="none" xmlns="http://www.w3.org/2000/svg">
<path d="M17.4919 162.239C109.144 109.731 206 71.8022 305.985 49.9041C312.483 48.4632 310.747 37.9711 304.249 39.4119C203.407 61.5993 105.388 100.108 13.1265 153.197C7.25778 156.679 11.3183 166.011 17.4919 162.239Z" fill="#FFA40C"/>
<path d="M309.642 37.9684C275.469 8.75226 230.056 -4.46801 183.255 2.11884C130.261 9.85597 82.1301 44.116 45.3586 86.5609C30.0785 104.295 5.70983 130.164 1.21644 153.46C-2.51553 171.804 21.3437 176.524 33.464 179.758C77.9433 191.228 129.756 181.449 174.496 162.038C229.032 138.573 276.685 97.9024 313.036 48.4645C317.475 42.6487 308.899 37.0926 304.707 43.2003C270.604 89.439 226.552 127.205 175.943 150.097C149.018 162.559 120.645 170.064 92.1752 172.909C79.3505 174.043 66.64 174.012 54.3485 172.525C46.4209 171.632 38.3027 169.864 30.7941 167.515C18.9786 163.991 9.3361 163.676 15.5834 145.046C20.2119 131.656 32.6342 117.702 41.4554 106.653C51.2483 94.1498 62.0893 82.2316 73.6737 71.1892C96.2327 49.6856 122.623 31.3959 151.281 20.9776C205.779 0.716947 262.721 11.9259 303.755 47.2767C308.577 51.6583 314.464 42.3501 309.642 37.9684Z" fill="#FFA40C"/>
<path d="M229.752 4.27117C214.11 22.8783 195.878 48.1798 188.869 71.7605C186.831 78.4562 196.493 81.393 198.531 74.6973C204.759 53.4453 221.772 29.3062 236.138 12.444C240.882 6.33754 234.439 -1.25272 229.752 4.27117Z" fill="#FFA40C"/>
<path d="M134.524 96.1002C137.247 82.4143 143.591 68.4458 148.467 55.3478C153.038 42.5404 157.914 29.4423 163.286 16.9282C166.125 10.5258 156.463 7.58901 153.624 13.9914C142.271 39.6009 129.47 68.7028 124.329 95.7841C122.787 103.064 133.287 103.089 134.524 96.1002Z" fill="#FFA40C"/>
<path d="M66.3657 128.855C70.1923 106.723 77.6396 84.3087 87.431 63.3567C90.2693 56.9543 80.8551 54.3095 77.769 60.4199C67.3678 81.9531 60.1113 105.242 55.8657 128.829C54.933 135.528 65.1282 135.844 66.3657 128.855Z" fill="#FFA40C"/>
<path d="M83.2871 125.4C95.9628 145.533 121.312 168.901 145.818 169.834C152.145 170.141 153.477 159.365 146.902 158.766C126.264 157.842 103.203 136.519 92.6999 119.596C89.288 114.927 79.6845 119.856 83.2871 125.4Z" fill="#FFA40C"/>
<path d="M140.471 103.107C159.511 120.341 181.161 133.504 205.479 142.012C211.634 144.066 215.12 133.878 209.269 131.533C186.553 123.612 166.446 111.618 148.397 95.5513C143.823 91.4615 135.897 99.0169 140.471 103.107Z" fill="#FFA40C"/>
<path d="M242.207 68.9769C250.86 76.5725 260.236 82.4219 270.89 86.5264C276.74 88.8713 280.531 78.3926 274.68 76.0477C265.875 72.8217 257.795 67.8494 250.686 61.4229C245.311 57.0398 237.385 64.5952 242.207 68.9769Z" fill="#FFA40C"/>
</svg>
