<svg width="18" height="16" viewBox="0 0 18 16" fill="none" xmlns="http://www.w3.org/2000/svg">
<path d="M0.929596 9.6793C2.02046 12.8554 4.40121 15.288 7.83538 15.6345C11.1195 15.9607 14.3804 14.4234 16.1354 11.6107C17.0639 10.1362 17.5904 8.37696 17.6182 6.63567C17.6421 5.16391 17.3405 3.40029 16.2752 2.28852C13.8764 -0.173366 9.50398 0.531697 6.58462 1.42806C4.68779 2.01388 2.90026 3.0661 1.60681 4.60505C0.366948 6.08648 0.36715 7.89944 0.929596 9.6793C1.01039 9.92866 1.39149 9.83794 1.33186 9.58354C0.860152 8.09545 0.72352 6.41568 1.71299 5.10577C2.73174 3.7777 4.18365 2.7718 5.72499 2.14749C8.51311 1.02497 12.3607 0.321735 15.1049 1.87322C18.0321 3.53782 17.5096 8.1276 16.2069 10.676C14.8038 13.4161 12.0489 15.1575 8.9831 15.2381C7.40535 15.278 5.76745 14.918 4.45674 13.999C2.95311 12.9244 1.93482 11.2978 1.33996 9.57042C1.24296 9.3473 0.840697 9.44305 0.929596 9.6793Z" fill="#FFD586"/>
<path d="M0.913183 5.69906C0.849329 7.38178 1.5077 9.09404 2.72799 10.2473C4.03664 11.4914 5.86326 11.7504 7.5905 11.5855C11.555 11.1902 15.7944 8.91639 17.2063 5.02143C17.3048 4.77415 16.9083 4.65591 16.8228 4.91127C15.5126 8.52462 11.6848 10.5997 8.0322 11.1334C6.32484 11.3832 4.4172 11.2553 3.09731 10.0586C1.89193 8.969 1.26153 7.32843 1.31912 5.71434C1.32301 5.44482 0.930144 5.43762 0.913183 5.69906Z" fill="#FFD586"/>
<path d="M1.32279 5.82538C4.16858 6.18878 7.02139 6.24834 9.86815 5.99598C10.1191 5.96982 10.1355 5.56302 9.88458 5.58918C7.03781 5.84154 4.16383 5.78702 1.33922 5.41858C1.08645 5.38922 1.07003 5.79602 1.32279 5.82538Z" fill="#FFD586"/>
<path d="M7.2308 11.2906C8.19435 9.58397 9.61872 7.74526 9.79546 5.7335C9.81242 5.47206 9.41955 5.46485 9.38952 5.71821C9.22218 7.62702 7.81402 9.43949 6.89097 11.0805C6.76631 11.3116 7.10614 11.5217 7.2308 11.2906Z" fill="#FFD586"/>
<path d="M13.1962 8.94172C12.0972 7.97226 11.0892 6.914 10.1802 5.75382C10.0197 5.54582 9.72568 5.81726 9.88619 6.02526C10.7952 7.18544 11.8032 8.24369 12.9022 9.21315C13.087 9.3818 13.3811 9.11036 13.1962 8.94172Z" fill="#FFD586"/>
<path d="M9.74685 5.81222C12.0883 5.12057 14.5348 4.63892 16.9791 4.86287C17.2319 4.89224 17.2483 4.48543 16.9955 4.45607C14.517 4.22907 12.0232 4.6996 9.65244 5.40941C9.40335 5.49109 9.49776 5.89389 9.74685 5.81222Z" fill="#FFD586"/>
<path d="M9.89138 5.6659C10.131 4.7807 10.3625 3.90862 10.6021 3.02342C10.7918 2.30678 11.0499 1.59622 11.0211 0.853255C11.0169 0.596854 10.6109 0.581569 10.6152 0.83797C10.6458 1.63645 10.3309 2.43885 10.13 3.20293C9.92099 3.98013 9.70387 4.77045 9.49484 5.54765C9.43554 5.81917 9.81901 5.92934 9.89138 5.6659Z" fill="#FFD586"/>
<path d="M9.77634 5.4135C8.5056 4.28347 7.25917 3.11409 6.02084 1.93159C5.84412 1.74983 5.54198 2.03438 5.7268 2.20303C6.96514 3.38553 8.21157 4.55491 9.48231 5.68493C9.6802 5.86166 9.98233 5.5771 9.77634 5.4135Z" fill="#FFD586"/>
<path d="M5.16181 8.08992C6.78211 7.65946 8.2594 6.90492 9.55943 5.82325C9.75441 5.65374 9.48436 5.35989 9.28939 5.52941C8.056 6.56164 6.63726 7.27986 5.08047 7.6952C4.80524 7.76072 4.90775 8.1504 5.16181 8.08992Z" fill="#FFD586"/>
<path d="M10.0101 6.02934C10.7209 6.48687 11.5189 6.74456 12.3682 6.74386C12.6241 6.7389 12.6324 6.34522 12.3846 6.33705C11.5989 6.32264 10.8873 6.10031 10.2288 5.6751C9.99854 5.55086 9.7879 5.89198 10.0101 6.02934Z" fill="#FFD586"/>
<path d="M10.9836 11.8522C11.1214 11.6291 10.7815 11.4191 10.6438 11.6421C10.5061 11.8651 10.8459 12.0752 10.9836 11.8522Z" fill="#FFD586"/>
<path d="M11.3108 13.4866C11.4485 13.2635 11.1087 13.0535 10.971 13.2765C10.8333 13.4995 11.1731 13.7096 11.3108 13.4866Z" fill="#FFD586"/>
<path d="M13.5226 13.0049C13.6604 12.7818 13.3205 12.5717 13.1828 12.7948C13.0451 13.0178 13.3849 13.2279 13.5226 13.0049Z" fill="#FFD586"/>
<path d="M13.1144 11.5016C13.2522 11.2786 12.9123 11.0685 12.7746 11.2916C12.6369 11.5146 12.9767 11.7247 13.1144 11.5016Z" fill="#FFD586"/>
<path d="M15.2351 9.29575C15.3728 9.07271 15.033 8.86262 14.8953 9.08566C14.7575 9.3087 15.0974 9.51879 15.2351 9.29575Z" fill="#FFD586"/>
<path d="M7.53108 13.1441C7.55722 13.1602 7.57029 13.1683 7.59643 13.1845C7.81863 13.3218 8.02927 12.9807 7.80707 12.8433C7.78093 12.8272 7.76786 12.8191 7.74172 12.8029C7.51953 12.6656 7.30888 13.0067 7.53108 13.1441Z" fill="#FFD586"/>
<path d="M14.0087 6.92412C14.4849 7.00101 14.9581 7.11221 15.415 7.24966C15.6646 7.31334 15.7757 6.92878 15.526 6.8651C15.061 6.74077 14.5879 6.62957 14.1197 6.53956C13.8831 6.48396 13.7509 6.87356 14.0087 6.92412Z" fill="#FFD586"/>
<path d="M1.89949 8.81052C2.42619 8.86421 2.93303 8.8331 3.44612 8.73334C3.70019 8.67287 3.61075 8.29126 3.35172 8.33054C2.87286 8.43333 2.3953 8.44629 1.90284 8.39564C1.64197 8.3794 1.64672 8.78116 1.89949 8.81052Z" fill="#FFD586"/>
</svg>
